<?xml version="1.0" encoding="UTF-8"?>
<svg id="_レイヤー_2" data-name="レイヤー 2" xmlns="http://www.w3.org/2000/svg" xmlns:xlink="http://www.w3.org/1999/xlink" viewBox="0 0 230 270">
  <defs>
    <style>
      .cls-1 {
        fill: none;
      }

      .cls-2, .cls-3 {
        fill: #bbc0c0;
        stroke: #bbc0c0;
        stroke-miterlimit: 10;
      }

      .cls-3 {
        stroke-width: .25px;
      }

      .cls-4 {
        clip-path: url(#clippath);
      }
    </style>
    <clipPath id="clippath">
      <rect class="cls-1" width="230" height="270"/>
    </clipPath>
  </defs>
  <g id="txt">
    <g class="cls-4">
      <g>
        <path class="cls-2" d="M61.01,237.41c3.02,1.8,4.53,5.27,4.18,9.04-.63,6.88-6.25,9.29-11.99,8.77-1.34-.12-2.66-.4-4.26-.85-2.32,5.86-7.69,8.1-14.57,7.47-11.81-1.09-23.35-15-22.33-26.14.71-7.73,5.98-10.48,11.88-9.64,1.81.27,3.77.95,5.47,1.82l-1.43-3.37c-2.92-.77-6.04-1.47-9.03-2.45-8.75-2.93-14.24-10.82-13.73-16.39.22-2.41,1.62-5.01,4.82-4.72,7.74.71,12.15,10.53,15.55,18.59,1.84.47,3.57.99,5.31,1.55,10.39,3.43,20.33,15.89,19.15,28.79-.13,1.46-.52,2.99-1.03,4.41,1.03.35,2.25.66,4.21.84,5.74.53,11.25-1.8,11.88-8.68.34-3.71-1.12-7.19-4.14-8.98l.05-.05ZM25.49,219.51c-3.03-6.96-7.39-17.73-15.47-18.48-2.39-.22-4.29,1.53-4.51,3.94-.47,5.12,2.93,9.53,9.2,11.68,2.9.98,7.39,1.99,10.78,2.86ZM29.44,227.97c-1.98-.99-4.28-1.71-6.38-1.9-5.5-.51-10.24,2.3-10.91,9.62-1.01,11.04,10.58,24.96,22.24,26.03,7.65.7,12.39-2.15,14.42-7.43-2.7-1.01-5.19-2.8-7.36-4.93-1.28,3.43-4.75,5.49-8.91,5.1-5.69-.52-12.17-6.63-11.59-12.86.13-1.41.62-3.13,1.89-4.33v.1c-1.18,1.21-1.66,2.78-1.8,4.24-.58,6.27,6.06,12.25,11.51,12.75,3.82.35,7.51-1.49,8.85-5.06-5.26-5.24-8.71-13.3-11.97-21.34ZM48.87,254.2c.38-1.03.79-2.31.93-3.81.47-5.17-1.55-19.32-18.86-25.06-.84-.28-1.83-.57-2.82-.82l1.37,3.42c7.85,3.81,13.19,11.74,12.52,19.07-.07.8-.29,1.59-.5,2.28,2.07,2.16,4.56,3.91,7.36,4.93ZM41.42,249.22c.25-.63.43-1.48.49-2.23.66-7.18-4.54-15.09-12.34-18.9,3.25,8.14,6.73,15.95,11.85,21.13Z"/>
        <path class="cls-3" d="M11.71,189.41l.96-3.94,32.2,28.68-.96,3.94-32.2-28.68ZM47.4,203.43c-.54.46-1.2.64-1.99.54-.79-.1-1.62-.55-2.5-1.36l-6.46-5.91c-1.04-.92-1.89-1.33-2.56-1.23-.67.1-1.1.53-1.29,1.3-.24.98-.02,2.24.64,3.77.66,1.53,1.64,3.17,2.92,4.91,1.28,1.74,2.72,3.36,4.32,4.86l-.4.29c-2.7-2.62-4.85-5.28-6.45-7.99-1.6-2.7-2.15-5.09-1.65-7.15.43-1.75,1.27-2.76,2.54-3.02,1.27-.27,2.74.34,4.42,1.83l6.2,5.57c1.55,1.38,2.47,1.49,2.75.34.2-.84-.11-2.03-.94-3.56-.83-1.54-2.27-3.87-4.33-7-.94-1.45-1.87-2.88-2.79-4.29l-1.31-2.15.44-.23,1.28,2.03,2.39,3.64c1.55,2.3,2.75,4.15,3.6,5.54.85,1.39,1.5,2.73,1.94,4s.56,2.39.33,3.33c-.2.84-.58,1.49-1.11,1.95Z"/>
        <path class="cls-3" d="M50.22,191.03c-.84.43-1.77.47-2.79.12-1.94-.67-3.75-1.97-5.42-3.89-1.68-1.92-2.87-4.08-3.57-6.5-.7-2.42-.7-4.65,0-6.69.41-1.19.96-2.02,1.64-2.49.68-.47,1.4-.6,2.17-.39.77.21,1.47.71,2.11,1.5l-.12.36c-.63-.71-1.26-1.16-1.9-1.35-.64-.18-1.22-.12-1.73.2-.51.32-.9.85-1.16,1.6-.46,1.33-.4,2.74.19,4.24.58,1.5,1.56,2.98,2.92,4.44l3.54,3.8c1.18,1.21,2.31,1.98,3.4,2.3s1.82-.06,2.2-1.15c.32-.92.11-2.25-.62-3.99-.73-1.74-1.73-3.54-3.01-5.39-1.28-1.85-2.54-3.4-3.79-4.63l.36-.22c.44.5.89,1,1.36,1.5,1.38,1.62,2.6,3.26,3.67,4.9,1.07,1.65,1.85,3.29,2.35,4.93.5,1.64.52,3.11.07,4.4-.4,1.16-1.02,1.95-1.86,2.38ZM54.25,180.5c-.57.39-1.24.5-2,.33-.76-.17-1.56-.7-2.39-1.6l-9.28-10.14,1.31-3.77,10.44,11.4c.78.84,1.39,1.27,1.84,1.3.45.02.75-.23.89-.75.24-.79.01-2.01-.67-3.66-.69-1.65-1.89-4.1-3.61-7.37-.78-1.49-1.56-2.98-2.33-4.47l-1.1-2.27.46-.18,1.08,2.15,2.12,3.94c1.31,2.48,2.31,4.42,3,5.84.69,1.42,1.2,2.79,1.52,4.1.32,1.31.33,2.43,0,3.35-.28.82-.71,1.42-1.29,1.81Z"/>
        <path class="cls-3" d="M63.23,158.32c-.61.34-1.28.38-2.02.14-.74-.24-1.48-.85-2.23-1.82l-22.94-30.2,1.66-3.63,23.98,31.57c1.27,1.65,2.15,1.91,2.66.8.34-.75.25-1.95-.28-3.6-.53-1.65-1.5-4.2-2.89-7.64-.65-1.6-1.3-3.21-1.96-4.81l-.88-2.36.48-.14.88,2.24,1.74,4.12c1.07,2.59,1.89,4.62,2.44,6.1.55,1.48.93,2.89,1.13,4.23s.1,2.45-.31,3.33c-.36.79-.84,1.35-1.45,1.68ZM58.23,168.41c-.87.35-1.8.3-2.78-.14-1.87-.85-3.54-2.31-5.03-4.38-1.49-2.07-2.47-4.34-2.94-6.81-.47-2.47-.26-4.69.64-6.66.52-1.15,1.15-1.92,1.86-2.32.72-.4,1.45-.47,2.19-.19.74.28,1.4.85,1.96,1.7l-.16.34c-.56-.77-1.15-1.28-1.77-1.52-.62-.24-1.2-.23-1.74.04-.54.27-.97.76-1.3,1.48-.58,1.28-.66,2.69-.21,4.24.44,1.55,1.27,3.11,2.48,4.7l3.16,4.12c1.06,1.32,2.12,2.19,3.17,2.61s1.82.11,2.3-.94c.4-.88.33-2.23-.24-4.03-.56-1.8-1.39-3.68-2.49-5.65-1.1-1.97-2.21-3.62-3.34-4.97l.38-.18c.39.53.79,1.08,1.22,1.62,1.22,1.75,2.28,3.49,3.19,5.23.91,1.74,1.53,3.45,1.87,5.13.34,1.68.23,3.14-.34,4.39-.51,1.11-1.2,1.85-2.07,2.2Z"/>
        <path class="cls-3" d="M53.9,128.11c-.62.11-1.2-.04-1.75-.46-.52-.41-.85-.98-1-1.72-.15-.74-.06-1.41.27-2.01.31-.57.78-.92,1.4-1.05.62-.13,1.19.02,1.69.46.53.46.88,1.04,1.03,1.77.16.72.07,1.38-.25,1.98-.31.57-.77.91-1.39,1.02ZM68.63,147.21c-.63.29-1.31.29-2.03,0-.72-.29-1.42-.95-2.09-1.97l-7.48-11.54,1.92-3.51,8.41,12.97c1.14,1.73,2.01,2.06,2.6.99.4-.73.39-1.93-.02-3.61-.41-1.68-1.19-4.29-2.33-7.83-.54-1.65-1.07-3.29-1.61-4.94l-.71-2.42.49-.1.71,2.3,1.44,4.23c.88,2.66,1.55,4.75,1.99,6.26.44,1.51.72,2.95.82,4.3.1,1.35-.08,2.45-.54,3.3-.41.76-.94,1.28-1.57,1.57Z"/>
        <path class="cls-3" d="M63.8,122.06l2.2-3.4,9.23,16.57-2.2,3.4-9.23-16.57ZM81.13,125.92c-.66.26-1.33.21-2.02-.15-.69-.36-1.33-1.07-1.93-2.14l-4.19-7.65c-.68-1.21-1.35-1.88-2.01-2.01-.67-.13-1.21.14-1.64.8-.53.82-.73,2.07-.62,3.75.11,1.68.49,3.55,1.13,5.62.64,2.06,1.46,4.08,2.46,6.05l-.45.1c-1.69-3.36-2.84-6.58-3.47-9.66-.62-3.08-.36-5.51.79-7.3.98-1.51,2.11-2.18,3.39-2.02,1.29.17,2.48,1.22,3.57,3.18l4.06,7.25c1,1.84,1.83,2.25,2.49,1.22.45-.7.53-1.9.24-3.61-.29-1.71-.88-4.37-1.76-7.98-.41-1.68-.83-3.36-1.24-5.04l-.53-2.46.49-.07.54,2.34,1.13,4.33c.69,2.72,1.2,4.85,1.53,6.39.33,1.54.5,2.99.51,4.34,0,1.35-.26,2.44-.78,3.25-.47.73-1.03,1.22-1.69,1.48Z"/>
        <path class="cls-3" d="M87.93,115.12c-.93.14-1.82-.12-2.67-.79-1.62-1.26-2.91-3.07-3.88-5.43-.97-2.36-1.4-4.79-1.28-7.31s.84-4.62,2.17-6.32c.78-.99,1.56-1.6,2.35-1.83.79-.23,1.52-.12,2.18.33.66.45,1.16,1.15,1.51,2.1l-.2.26c-.36-.88-.82-1.51-1.37-1.89-.55-.38-1.12-.5-1.72-.35s-1.14.54-1.63,1.16c-.86,1.11-1.26,2.46-1.19,4.07.07,1.61.51,3.32,1.32,5.15l2.12,4.74c.73,1.53,1.55,2.62,2.48,3.27s1.74.53,2.45-.38c.6-.77.84-2.1.72-3.99-.12-1.9-.49-3.93-1.12-6.11-.63-2.18-1.32-4.04-2.07-5.59l.38-.05c.25.61.52,1.23.81,1.86.78,1.98,1.41,3.92,1.89,5.83.48,1.9.69,3.71.63,5.42-.06,1.71-.51,3.11-1.35,4.19-.75.96-1.6,1.52-2.53,1.66ZM96.17,131.94c-1.15.18-2.14-.06-2.99-.73-1.05-.82-1.63-1.76-1.75-2.81-.12-1.05.1-1.93.66-2.64.4-.51.85-.79,1.34-.84.49-.05.98.18,1.45.69.44.43.67.97.7,1.61.03.64-.15,1.2-.52,1.68-.42.54-.95.76-1.59.68-.64-.09-1.22-.41-1.75-.96l.12-.59c.24.69.49,1.23.76,1.62.27.39.64.77,1.12,1.15.74.58,1.58.74,2.54.48.96-.26,1.83-.9,2.63-1.92.95-1.22,1.39-2.55,1.3-3.99-.09-1.44-.51-3.07-1.27-4.9l-.31-.65-12.73-28.52,2.46-3.15,12.16,27.32c1.07,2.43,1.61,4.84,1.62,7.23,0,2.38-.82,4.64-2.48,6.77-1.15,1.47-2.3,2.3-3.45,2.48Z"/>
        <path class="cls-3" d="M94.35,68.69c-1.27.14-2.45-.34-3.54-1.45-2.32-2.36-2.83-5.23-1.52-8.61,1.3-3.37,3.54-6.61,6.7-9.71,1.08-1.06,2.31-2.16,3.7-3.29,1.39-1.13,3.03-2.43,4.92-3.89,2.18-1.68,3.98-3.11,5.4-4.28,1.42-1.17,2.74-2.35,3.95-3.53l.19-.19c1.57-1.59,2.88-3.22,3.92-4.91,1.05-1.68,1.65-3.14,1.82-4.36l.53.08-.16,1.07c-.19,1.09-.45,2.18-.77,3.26-.33,1.08-.82,2.2-1.48,3.35-.66,1.15-1.5,2.23-2.53,3.24-1.21,1.19-2.59,2.34-4.14,3.46-1.55,1.12-3.45,2.41-5.71,3.86-2.36,1.56-4.27,2.87-5.75,3.94-1.47,1.07-2.79,2.17-3.94,3.3-2.88,2.82-4.93,5.78-6.15,8.88-1.23,3.09-.75,5.75,1.42,7.96.96.98,2.01,1.39,3.16,1.25s2.23-.72,3.26-1.73c1.08-1.06,1.95-2.52,2.62-4.39.67-1.86,1.03-3.91,1.09-6.14.06-2.23-.28-4.36-1.03-6.41l.54-.22c.74,2.15,1.09,4.37,1.03,6.67-.06,2.3-.44,4.42-1.15,6.35-.71,1.93-1.62,3.45-2.75,4.56-1.13,1.11-2.33,1.74-3.61,1.88ZM100.57,91.91c-.65,0-1.23-.25-1.73-.76-.66-.67-.93-1.45-.84-2.36.1-.9.47-1.67,1.11-2.3.56-.55,1.14-.84,1.73-.86.59-.02,1.12.21,1.6.7.66.67.97,1.47.93,2.41-.03.94-.37,1.73-1.01,2.36-.54.53-1.13.8-1.78.8ZM105.89,92.44c-1.46.55-2.77.69-3.96.44-1.18-.25-2.2-.82-3.06-1.69l1.27-1.48c.63,1.15,1.46,1.9,2.5,2.24,1.04.34,2.19.26,3.46-.25,1.26-.51,2.55-1.41,3.86-2.69,1.44-1.41,2.46-2.81,3.07-4.19.61-1.38.9-2.82.88-4.31-.02-1.49-.29-3.27-.81-5.33-.25-.97-.5-1.93-.78-2.87l-4.33-14.89c-.79-2.71-1.15-5.18-1.1-7.44s.41-4.27,1.05-6.06c.64-1.79,1.49-3.56,2.55-5.3l.34.19c-.6,1.29-1.02,2.65-1.26,4.07-.24,1.42-.27,3.04-.08,4.85.19,1.81.61,3.88,1.28,6.2l.07.31,4.29,14.7c1.18,4.14,1.37,7.9.56,11.29-.81,3.39-2.6,6.45-5.37,9.17-1.52,1.49-3,2.5-4.46,3.05ZM104.91,74.75c.12-2.09.61-4.07,1.47-5.94.86-1.88,2.14-4.26,3.85-7.14l.04-.04.39-.61c1.63-2.76,2.9-5.13,3.81-7.11.91-1.98,1.49-4.02,1.74-6.13l.53.08c-.25,2.21-.85,4.34-1.8,6.38-.95,2.04-2.29,4.49-4.02,7.35l-.19.34c-1.71,2.84-2.98,5.18-3.81,7.03-.83,1.85-1.31,3.78-1.43,5.79-.12,2.01.32,4.14,1.31,6.39l-.54.22c-1.02-2.33-1.47-4.53-1.35-6.62ZM116.56,53.51c-.31-1.73-.44-3.62-.37-5.65l.5.04c-.07,1.63.12,3.12.57,4.47.45,1.35,1.05,2.52,1.8,3.49l-.9,1.79c-.75-1.02-1.29-2.4-1.6-4.14Z"/>
        <path class="cls-3" d="M132.4,68.39c-.69.02-1.31-.24-1.85-.81-.54-.56-.92-1.44-1.14-2.65l-4.55-24.81c-.56-2.91-.66-5.64-.3-8.18.37-2.54,1.11-4.82,2.24-6.82,1.12-2,2.55-3.68,4.27-5.05l.34.42c-2.06,1.64-3.35,3.77-3.88,6.4s-.43,5.79.3,9.49l4.98,27.78c.38,2.04,1.05,2.68,2.01,1.92.65-.52,1.12-1.63,1.4-3.36.29-1.72.59-4.53.9-8.41.1-1.09.17-1.91.22-2.45.05-.55.11-1.35.18-2.42l.29-2.5.49.09-.23,2.39-.32,4.46c-.22,2.79-.41,4.98-.59,6.54-.18,1.57-.48,2.99-.91,4.28-.43,1.28-1.02,2.23-1.78,2.83-.68.54-1.36.82-2.06.84Z"/>
        <path class="cls-3" d="M142.53,59.92c-1.05-.08-1.91-.61-2.59-1.59-1.07-1.54-1.74-3.55-2.01-6.04-.27-2.49.02-4.95.85-7.37.83-2.42,2.27-4.35,4.31-5.77,1.06-.74,2.01-1.08,2.84-1.03.83.06,1.5.36,2.01.9.51.54.87,1.16,1.09,1.84l-.66.19c-.12-.75-.43-1.32-.91-1.73-.48-.41-1.04-.61-1.68-.61-.63,0-1.25.21-1.84.62-1.15.8-1.95,1.99-2.38,3.57-.44,1.58-.53,3.27-.28,5.07l.63,5.16c.27,1.83.77,3.23,1.5,4.19.73.96,1.63,1.07,2.7.33s1.89-1.93,2.48-3.57c.59-1.64.95-3.43,1.09-5.37.14-1.94.1-3.69-.11-5.26.35.06.69.01,1.02-.15.33-.16.7-.39,1.11-.67,1.45-1.01,2.37-2.61,2.76-4.82l.44-2.48.48.12-.39,2.37c-.18,1.13-.53,2.16-1.05,3.07-.52.92-1.23,1.68-2.12,2.3-.92.64-1.78.99-2.59,1.05-.81.06-1.46-.25-1.93-.93-.47-.68-.66-1.42-.56-2.21.1-.8.38-1.35.82-1.66.24-.16.5-.22.81-.17.3.05.56.24.79.57.64.92,1.04,2.69,1.2,5.32.16,2.63-.12,5.26-.85,7.9-.73,2.64-2,4.58-3.8,5.84-1.09.76-2.16,1.1-3.21,1.02Z"/>
        <path class="cls-3" d="M157.23,48.45c-1.08-.72-1.65-2.23-1.71-4.55l-.29-12.15,3.54-1.97.28,14.25c0,1.48.28,2.45.82,2.91.54.46,1.19.48,1.95.06.88-.49,1.6-1.36,2.17-2.6.56-1.24.98-2.78,1.25-4.63.27-1.84.42-3.96.44-6.37l.44.12c-.04,3.85-.4,7-1.09,9.45-.69,2.45-1.86,4.13-3.49,5.04-1.79,1-3.23,1.14-4.31.43ZM168.87,42.54c-.99-.37-1.76-1.14-2.3-2.3-.54-1.16-.83-2.47-.87-3.94l-.22-10.26,3.49-1.95.3,13.06c.05,1.58.35,2.77.89,3.59.54.81,1.28.96,2.22.43.88-.49,1.7-1.57,2.45-3.25.75-1.68,1.33-3.53,1.72-5.57.39-2.03.51-3.75.35-5.14-.78-.88-1.44-1.8-1.96-2.74l-.13-.24c-.16-.28-.28-.68-.36-1.19s-.05-.99.09-1.44c.14-.45.46-.71.96-.78-.52.33-.77.87-.77,1.61,0,.74.15,1.46.46,2.15.37.95.74,1.65,1.13,2.09.39.44.83.68,1.33.71.49.03,1.1-.15,1.82-.55.79-.44,1.5-1.08,2.14-1.93s1.11-1.81,1.42-2.89l.69-2.42.47.17-.62,2.32c-.3,1.16-.8,2.21-1.49,3.15-.69.94-1.49,1.67-2.4,2.18-1.1.61-2.06.84-2.87.67-.81-.16-1.52-.78-2.11-1.85-.6-1.07-.88-2.18-.86-3.32.02-1.14.36-1.9,1.02-2.27.41-.23.76-.26,1.06-.1.3.16.55.43.76.81.74,1.32,1.04,3.49.91,6.51-.13,3.02-.66,5.93-1.6,8.71-.94,2.79-2.16,4.61-3.67,5.45-1.29.72-2.43.89-3.42.52Z"/>
        <path class="cls-3" d="M183.17,25.14c.3-2.41,1.09-4.71,2.36-6.89,1.27-2.18,2.94-3.73,5.02-4.63,1.39-.6,2.5-.84,3.34-.72.84.13,1.45.62,1.82,1.47.49,1.12.38,2.42-.31,3.88-.7,1.46-1.82,2.88-3.36,4.26-1.54,1.38-3.28,2.49-5.23,3.34l-.19-.45c1.81-.79,3.28-1.76,4.38-2.91,1.11-1.15,1.87-2.34,2.28-3.56.41-1.22.51-2.29.3-3.22-.15-.8-.45-1.34-.89-1.64-.44-.3-1.03-.29-1.75.03-1.12.49-1.98,1.46-2.58,2.92-.6,1.46-.97,3.2-1.11,5.23l-.37,4.82c-.11,1.82.17,3.25.84,4.29.67,1.04,1.83,1.2,3.48.48,1.19-.52,2.28-1.44,3.27-2.78.99-1.33,1.96-3.04,2.92-5.13.96-2.09,2.13-4.95,3.53-8.58l.17-.43.92-2.35.45.22-.84,2.25-1.08,2.65c-1.46,3.5-2.6,6.12-3.44,7.86-.83,1.74-1.77,3.25-2.83,4.53-1.05,1.28-2.27,2.23-3.65,2.83-1.78.78-3.23.99-4.35.63-1.12-.36-1.96-1.2-2.54-2.52-.66-1.52-.84-3.48-.54-5.89Z"/>
        <path class="cls-3" d="M202.88,9.27l3.82-1.35-2.81,18.75-3.82,1.35,2.81-18.75ZM204.56,19.04c.7-3.42,1.56-6.26,2.59-8.54,1.03-2.27,2.31-3.68,3.83-4.22.88-.31,1.63-.31,2.24.01.61.32,1.05.85,1.31,1.6.29.81.38,1.69.27,2.63-.11.94-.38,1.76-.82,2.47-.44.71-.94,1.16-1.52,1.37-.54.19-1.02.19-1.43,0-.41-.2-.71-.61-.89-1.23-.21-.69-.12-1.37.25-2.04.37-.67.9-1.12,1.58-1.36.54-.19.99-.12,1.34.21s.54.88.58,1.63h-.29c.22-.47.35-1,.38-1.61.03-.6-.06-1.23-.29-1.87-.2-.58-.54-.98-1-1.22-.47-.24-.99-.25-1.56-.05-1.46.52-2.72,2.06-3.77,4.63-1.06,2.57-1.96,5.72-2.69,9.46l-.41-.2.33-1.66ZM211.72,14.65c-.46-.12-.85-.45-1.15-1l.22-.36c.26.41.59.66.99.77.4.11.86.07,1.36-.11,1.22-.43,2.28-1.04,3.17-1.81.89-.77,1.63-1.78,2.22-3.02l1.12-2.34.43.25-1.03,2.26c-.55,1.26-1.3,2.33-2.27,3.21-.97.88-2.13,1.56-3.49,2.04-.58.2-1.1.25-1.56.12Z"/>
      </g>
    </g>
  </g>
</svg>