<?xml version="1.0" encoding="UTF-8"?>
<svg id="_レイヤー_2" data-name="レイヤー 2" xmlns="http://www.w3.org/2000/svg" viewBox="0 0 321.19 64.46">
  <defs>
    <style>
      .cls-1, .cls-2 {
        fill: #c0b86c;
        stroke: #c0b86c;
        stroke-miterlimit: 10;
      }

      .cls-2 {
        stroke-width: .25px;
      }
    </style>
  </defs>
  <g id="txt">
    <g>
      <path class="cls-1" d="M27.26,58.97c-1.51,3.17-4.84,4.99-8.62,4.99-6.9,0-9.83-5.38-9.83-11.14,0-1.34.15-2.69.45-4.32-6.05-1.78-8.77-6.91-8.77-13.83C.5,22.82,13.3,10.05,24.49,10.05c7.76,0,10.99,4.99,10.68,10.94-.1,1.82-.6,3.84-1.31,5.62l3.23-1.73c.5-2.98.91-6.14,1.61-9.22C40.82,6.69,48.18.5,53.77.5c2.42,0,5.14,1.15,5.14,4.37,0,7.78-9.37,13.06-17.08,17.19-.3,1.87-.66,3.65-1.06,5.42-2.47,10.66-13.96,21.7-26.91,21.7-1.46,0-3.02-.24-4.49-.62-.25,1.06-.45,2.3-.45,4.27,0,5.76,2.82,11.04,9.73,11.04,3.73,0,7.06-1.78,8.57-4.94l.05.05ZM33.76,26.66c.81-2.06,1.31-4.42,1.31-6.53,0-5.52-3.23-9.98-10.58-9.98C13.4,10.15.6,22.97.6,34.68c0,7.68,3.28,12.15,8.72,13.68.76-2.78,2.32-5.42,4.23-7.78-3.53-.96-5.9-4.22-5.9-8.4,0-5.71,5.49-12.72,11.74-12.72,1.41,0,3.18.34,4.49,1.49h-.1c-1.31-1.06-2.92-1.39-4.38-1.39-6.3,0-11.64,7.15-11.64,12.62,0,3.84,2.17,7.34,5.85,8.35,4.74-5.71,12.45-9.89,20.16-13.87ZM9.42,48.41c1.06.29,2.37.58,3.88.58,5.19,0,19.1-3.31,23.23-21.07.2-.86.4-1.87.55-2.88l-3.28,1.68c-3.07,8.16-10.48,14.21-17.84,14.21-.81,0-1.61-.14-2.32-.29-1.97,2.26-3.48,4.9-4.23,7.78ZM13.7,40.54c.66.19,1.51.29,2.27.29,7.21,0,14.62-5.9,17.69-14.02-7.81,3.98-15.27,8.16-19.96,13.73ZM41.83,21.96c6.65-3.65,16.98-8.98,16.98-17.09,0-2.4-1.92-4.13-4.33-4.13-5.14,0-9.22,3.79-10.79,10.22-.71,2.98-1.31,7.54-1.86,10.99Z"/>
      <path class="cls-2" d="M50.06,38.92c-.9-.77-1.35-1.88-1.35-3.32,0-1.76.6-3.69,1.81-5.78,1.21-2.09,2.83-3.85,4.86-5.29,2.03-1.44,4.24-2.16,6.61-2.16,2.81,0,4.21,1.03,4.21,3.08,0,.94-.3,1.8-.89,2.59-.59.79-1.27,1.19-2.02,1.19-.54,0-.97-.19-1.3-.57-.32-.38-.43-.84-.32-1.38.07-.58.33-1.05.78-1.43.45-.38.96-.57,1.54-.57.5,0,.88.17,1.13.51.25.34.29.75.11,1.21l-.54.54c.54-.72.81-1.53.81-2.43,0-.68-.24-1.21-.73-1.57-.49-.36-1.18-.54-2.08-.54-1.44,0-2.75.56-3.94,1.67-1.19,1.12-2.27,2.63-3.24,4.54l-2.16,4.1c-.83,1.62-1.15,3.02-.97,4.21.18,1.19,1.13,1.78,2.86,1.78,1.87,0,3.97-.89,6.29-2.67s5.54-4.74,9.64-8.88l1.78-1.78.32.38-1.67,1.73-2.59,2.54c-2.23,2.23-4.13,4.01-5.7,5.32-1.57,1.31-3.1,2.33-4.59,3.05-1.49.72-2.98,1.08-4.46,1.08-1.91,0-3.31-.39-4.21-1.16Z"/>
      <path class="cls-2" d="M68.9,39.05c-.68-.65-1.03-1.51-1.03-2.59,0-2.05.63-4.19,1.89-6.4,1.26-2.21,2.92-4.05,4.97-5.51,2.05-1.46,4.16-2.19,6.32-2.19,1.26,0,2.22.24,2.89.73.67.49,1.03,1.13,1.08,1.92.05.79-.19,1.62-.73,2.48h-.38c.47-.83.68-1.57.65-2.24-.04-.67-.29-1.19-.76-1.57-.47-.38-1.1-.57-1.89-.57-1.4,0-2.72.52-3.94,1.57-1.22,1.04-2.3,2.45-3.24,4.21l-2.43,4.59c-.76,1.51-1.11,2.83-1.05,3.97.05,1.13.66,1.7,1.81,1.7.97,0,2.16-.63,3.56-1.89,1.4-1.26,2.77-2.8,4.1-4.62,1.33-1.82,2.38-3.52,3.13-5.1l.32.27c-.32.58-.65,1.17-.97,1.78-1.08,1.84-2.22,3.53-3.43,5.08-1.21,1.55-2.5,2.83-3.89,3.83-1.39,1.01-2.76,1.51-4.13,1.51-1.22,0-2.18-.32-2.86-.97ZM80.16,39.4c-.56-.41-.88-1.01-.97-1.78-.09-.77.15-1.7.73-2.78l6.53-12.1h4l-7.34,13.61c-.54,1.01-.75,1.73-.62,2.16.13.43.46.63,1,.59.83-.04,1.91-.65,3.24-1.84,1.33-1.19,3.26-3.13,5.78-5.83,1.15-1.22,2.3-2.45,3.46-3.67l1.78-1.78.32.38-1.67,1.73-3.02,3.29c-1.91,2.05-3.42,3.64-4.54,4.75-1.12,1.12-2.24,2.04-3.38,2.78-1.13.74-2.19,1.11-3.16,1.11-.86,0-1.58-.21-2.13-.62Z"/>
      <path class="cls-2" d="M93.18,39.4c-.56-.41-.87-1.01-.95-1.78-.07-.77.18-1.7.76-2.78L110.91,1.41h4l-18.79,34.94c-.97,1.84-.85,2.75.38,2.75.83,0,1.89-.58,3.19-1.76,1.3-1.17,3.28-3.18,5.94-6.02.76-.79,1.32-1.39,1.7-1.78.38-.4.93-.99,1.65-1.78l1.78-1.78.32.38-1.67,1.73-3.02,3.29c-1.91,2.05-3.42,3.64-4.54,4.75-1.12,1.12-2.24,2.04-3.38,2.78-1.13.74-2.19,1.11-3.16,1.11-.86,0-1.58-.21-2.13-.62Z"/>
      <path class="cls-2" d="M106.19,39.4c-.56-.41-.87-1.01-.95-1.78-.07-.77.18-1.7.76-2.78L123.93,1.41h4l-18.79,34.94c-.97,1.84-.85,2.75.38,2.75.83,0,1.89-.58,3.19-1.76,1.3-1.17,3.28-3.18,5.94-6.02.76-.79,1.32-1.39,1.7-1.78.38-.4.93-.99,1.65-1.78l1.78-1.78.32.38-1.67,1.73-3.02,3.29c-1.91,2.05-3.42,3.64-4.54,4.75-1.12,1.12-2.24,2.04-3.38,2.78-1.13.74-2.19,1.11-3.16,1.11-.86,0-1.58-.21-2.13-.62Z"/>
      <path class="cls-2" d="M119.96,39.08c-.81-.67-1.21-1.59-1.21-2.78,0-1.87.6-3.91,1.81-6.1,1.21-2.2,2.84-4.05,4.91-5.56,2.07-1.51,4.35-2.27,6.83-2.27,1.3,0,2.27.26,2.92.78.65.52,1.03,1.15,1.13,1.89.11.74.05,1.45-.16,2.13l-.65-.22c.32-.68.4-1.33.24-1.94-.16-.61-.5-1.1-1.03-1.46-.52-.36-1.14-.54-1.86-.54-1.4,0-2.74.52-4,1.57-1.26,1.04-2.3,2.38-3.13,4l-2.43,4.59c-.83,1.66-1.21,3.09-1.16,4.29.05,1.21.73,1.81,2.02,1.81s2.65-.5,4.08-1.51c1.42-1.01,2.74-2.27,3.97-3.78,1.22-1.51,2.2-2.97,2.92-4.37.25.25.56.4.92.46.36.05.79.08,1.3.08,1.76,0,3.44-.79,5.02-2.38l1.78-1.78.32.38-1.67,1.73c-.79.83-1.67,1.47-2.62,1.92-.95.45-1.97.68-3.05.68s-2.03-.21-2.73-.62c-.7-.41-1.05-1.03-1.05-1.86s.27-1.54.81-2.13,1.08-.89,1.62-.89c.29,0,.54.11.76.32.22.22.32.52.32.92,0,1.12-.68,2.8-2.05,5.05-1.37,2.25-3.1,4.25-5.21,5.99-2.11,1.75-4.26,2.62-6.45,2.62-1.33,0-2.4-.33-3.21-1Z"/>
      <path class="cls-2" d="M145.8,22.74h4.05l-18.09,34.02h-4.05l18.09-34.02ZM143.29,39.29c-.67-.49-1.03-1.12-1.08-1.92-.05-.79.19-1.62.73-2.48l.38.05c-.47.83-.68,1.57-.65,2.21.04.65.29,1.16.76,1.54.47.38,1.1.57,1.89.57,1.44,0,2.77-.52,4-1.57,1.22-1.04,2.29-2.45,3.19-4.21l2.43-4.59c.76-1.51,1.11-2.83,1.05-3.94-.05-1.12-.66-1.67-1.81-1.67-.97,0-2.16.63-3.56,1.89-1.4,1.26-2.77,2.8-4.1,4.62-1.33,1.82-2.38,3.5-3.13,5.05l-.32-.27c.32-.61.65-1.21.97-1.78,1.08-1.84,2.22-3.53,3.43-5.08,1.21-1.55,2.5-2.83,3.89-3.83,1.39-1.01,2.76-1.51,4.13-1.51,1.22,0,2.18.32,2.86.97.68.65,1.03,1.53,1.03,2.65,0,2.05-.63,4.18-1.89,6.37-1.26,2.2-2.92,4.02-4.97,5.48-2.05,1.46-4.16,2.19-6.32,2.19-1.26,0-2.22-.24-2.89-.73ZM153.3,37.86c1.98-1.01,3.78-2.23,5.4-3.67,1.62-1.44,3.62-3.38,5.99-5.83l.54-.59,1.78-1.78.32.38-1.67,1.73-.7.76c-2.77,2.88-5.15,5.11-7.13,6.7-1.98,1.58-3.85,2.72-5.62,3.4-1.76.68-3.65,1.03-5.67,1.03l.38-.49c2.27-.07,4.39-.61,6.37-1.62Z"/>
      <path class="cls-2" d="M175.58,38.86c-1.42-.63-2.47-1.45-3.13-2.46-.67-1.01-1-2.12-1-3.35l1.94-.16c-.36,1.26-.29,2.38.22,3.35.5.97,1.39,1.72,2.65,2.24,1.26.52,2.81.78,4.64.78,2.2,0,4.08-.38,5.64-1.13,1.57-.76,2.94-1.86,4.13-3.32s2.43-3.39,3.73-5.81l7.34-13.66c1.22-2.27,2.55-4.14,3.97-5.62,1.42-1.48,2.89-2.64,4.4-3.48,1.51-.85,3.17-1.56,4.97-2.13l.22.38c-1.33.61-2.55,1.45-3.65,2.51-1.1,1.06-2.19,2.44-3.27,4.13-.72,1.08-1.49,2.39-2.32,3.94l-6.97,13.01c-2.16,4.03-4.71,6.99-7.64,8.88-2.93,1.89-6.45,2.83-10.56,2.83-2.12,0-3.9-.32-5.32-.95ZM172.15,34.76c-.47-.45-.7-1.02-.7-1.7,0-.94.35-1.69,1.05-2.27.7-.58,1.5-.86,2.4-.86.76,0,1.36.2,1.81.59.45.4.67.92.67,1.57,0,.94-.34,1.73-1.03,2.38-.68.65-1.48.97-2.38.97-.76,0-1.37-.22-1.84-.68ZM180.06,22.07c-1.17-.99-1.75-2.33-1.75-4.02,0-2.88,1.39-5.67,4.19-8.37,2.79-2.7,6.46-4.89,11.02-6.56,4.55-1.67,9.33-2.51,14.34-2.51,3.71,0,6.85.47,9.42,1.4,2.57.94,4.5,2.16,5.78,3.67,1.28,1.51,1.92,3.11,1.92,4.81,0,2.34-.86,4.37-2.59,6.08-1.73,1.71-4.04,3-6.94,3.86-2.9.86-6.04,1.3-9.42,1.3v-.54c2.84,0,5.44-.47,7.78-1.4,2.34-.94,4.19-2.24,5.56-3.92,1.37-1.67,2.05-3.55,2.05-5.64,0-1.51-.52-2.93-1.57-4.27-1.04-1.33-2.66-2.42-4.83-3.27-2.18-.85-4.91-1.27-8.18-1.27-4.36,0-8.54.79-12.56,2.38-4.01,1.58-7.25,3.64-9.72,6.16-2.47,2.52-3.7,5.13-3.7,7.83,0,1.51.46,2.69,1.38,3.54.92.85,2.22,1.27,3.92,1.27,1.91,0,4.08-.56,6.51-1.67,2.43-1.12,4.8-2.54,7.1-4.27,2.3-1.73,4.21-3.46,5.72-5.18l.22.43c-1.62,1.87-3.65,3.71-6.1,5.51-2.45,1.8-4.98,3.28-7.59,4.43-2.61,1.15-4.96,1.73-7.05,1.73s-3.72-.49-4.89-1.48ZM198.88,39.35c-1.58-.49-2.85-1.2-3.81-2.13-.95-.94-1.43-2.02-1.43-3.24h.54c0,1.04.39,1.95,1.16,2.73.77.77,1.8,1.38,3.08,1.81,1.28.43,2.65.65,4.13.65,1.91,0,3.75-.5,5.54-1.51,1.78-1.01,3.23-2.39,4.35-4.16,1.12-1.76,1.67-3.74,1.67-5.94,0-1.26-.32-2.33-.97-3.21-.65-.88-1.48-1.55-2.51-2-1.03-.45-2.1-.67-3.21-.67v-.54c2.16,0,4.03.29,5.62.86,1.58.58,2.8,1.41,3.65,2.51.85,1.1,1.27,2.44,1.27,4.02,0,2.3-.62,4.33-1.86,6.07-1.24,1.75-2.93,3.1-5.05,4.05-2.12.95-4.46,1.43-7.02,1.43-1.84,0-3.55-.24-5.13-.73Z"/>
      <path class="cls-2" d="M220.78,39.4c-.56-.41-.87-1.01-.95-1.78-.07-.77.18-1.7.76-2.78L238.51,1.41h4l-18.79,34.94c-.97,1.84-.85,2.75.38,2.75.83,0,1.89-.58,3.19-1.76,1.3-1.17,3.28-3.18,5.94-6.02.76-.79,1.32-1.39,1.7-1.78.38-.4.93-.99,1.65-1.78l1.78-1.78.32.38-1.67,1.73-3.02,3.29c-1.91,2.05-3.42,3.64-4.54,4.75-1.12,1.12-2.24,2.04-3.38,2.78-1.13.74-2.19,1.11-3.16,1.11-.86,0-1.58-.21-2.13-.62Z"/>
      <path class="cls-2" d="M234.54,39.08c-.81-.67-1.21-1.59-1.21-2.78,0-1.87.6-3.91,1.81-6.1,1.21-2.2,2.84-4.05,4.91-5.56,2.07-1.51,4.35-2.27,6.83-2.27,1.3,0,2.27.26,2.92.78.65.52,1.03,1.15,1.13,1.89.11.74.05,1.45-.16,2.13l-.65-.22c.32-.68.4-1.33.24-1.94-.16-.61-.5-1.1-1.03-1.46-.52-.36-1.14-.54-1.86-.54-1.4,0-2.74.52-4,1.57-1.26,1.04-2.3,2.38-3.13,4l-2.43,4.59c-.83,1.66-1.21,3.09-1.16,4.29.05,1.21.73,1.81,2.02,1.81s2.65-.5,4.08-1.51c1.42-1.01,2.74-2.27,3.97-3.78,1.22-1.51,2.2-2.97,2.92-4.37.25.25.56.4.92.46.36.05.79.08,1.3.08,1.76,0,3.44-.79,5.02-2.38l1.78-1.78.32.38-1.67,1.73c-.79.83-1.67,1.47-2.62,1.92-.95.45-1.97.68-3.05.68s-2.03-.21-2.73-.62c-.7-.41-1.05-1.03-1.05-1.86s.27-1.54.81-2.13,1.08-.89,1.62-.89c.29,0,.54.11.76.32.22.22.32.52.32.92,0,1.12-.68,2.8-2.05,5.05-1.37,2.25-3.1,4.25-5.21,5.99-2.11,1.75-4.26,2.62-6.45,2.62-1.33,0-2.4-.33-3.21-1Z"/>
      <path class="cls-2" d="M254.04,38.29c-.59-1.15-.35-2.75.73-4.81l5.67-10.75h4.05l-6.75,12.64c-.72,1.33-.95,2.33-.7,3,.25.67.81,1,1.67,1,1.01,0,2.12-.42,3.35-1.27,1.22-.85,2.48-2.02,3.78-3.54,1.3-1.51,2.52-3.28,3.67-5.29l.32.32c-1.87,3.2-3.83,5.74-5.86,7.61-2.03,1.87-4.02,2.81-5.97,2.81-2.05,0-3.38-.58-3.97-1.73ZM266.65,39.4c-.58-.41-.9-1.01-.97-1.78-.07-.77.18-1.7.76-2.78l6.48-12.1h4l-7.29,13.61c-1.01,1.84-.9,2.75.32,2.75.83,0,1.89-.58,3.19-1.76,1.3-1.17,3.28-3.18,5.94-6.02.76-.79,1.32-1.39,1.7-1.78.38-.4.93-.99,1.65-1.78l1.78-1.78.32.38-1.67,1.73-2.86,3.08c-1.84,2.05-3.34,3.66-4.51,4.83-1.17,1.17-2.33,2.13-3.48,2.89-1.15.76-2.21,1.13-3.19,1.13-.86,0-1.58-.21-2.16-.62Z"/>
      <path class="cls-2" d="M277.74,39.08c-.81-.63-1.21-1.38-1.21-2.24,0-.79.26-1.47.78-2.02.52-.56,1.14-.84,1.86-.84.61,0,1.07.18,1.38.54.31.36.44.81.4,1.35-.04.54-.25,1.02-.65,1.43-.4.41-.88.62-1.46.62-.76.04-1.24-.17-1.46-.62-.22-.45-.27-.98-.16-1.59.04-.04.05-.09.05-.16h.49c-.43.36-.65.81-.65,1.35,0,.65.33,1.22,1,1.73.67.5,1.5.76,2.51.76,1.48,0,2.74-.31,3.78-.92,1.04-.61,1.86-1.55,2.46-2.81.59-1.26,1.02-2.84,1.27-4.75.11-.83.22-1.64.32-2.43.25-1.58.59-2.89,1.03-3.92.43-1.03,1.03-1.81,1.78-2.35.43-.32.91-.57,1.43-.73.52-.16,1.05-.24,1.59-.24.65,0,1.08.14,1.3.43.22.29.21.59-.03.89-.23.31-.6.46-1.11.46-.25,0-.74-.09-1.46-.27-.43-.14-.77-.21-1-.19-.23.02-.42.15-.57.41-.25.32-.36.81-.32,1.46.04.65.14,1.58.32,2.81.11.61.21,1.24.3,1.89.09.65.14,1.24.14,1.78,0,1.87-.48,3.5-1.43,4.89-.95,1.39-2.23,2.44-3.83,3.16-1.6.72-3.39,1.08-5.37,1.08-1.51,0-2.67-.32-3.48-.95ZM287.36,38.13c1.96-.97,3.74-2.15,5.35-3.54,1.6-1.39,3.54-3.21,5.81-5.48l1.35-1.35,1.78-1.78.32.38-1.67,1.73c-3.28,3.38-6.05,5.95-8.32,7.7-2.27,1.75-4.19,2.89-5.78,3.43-1.58.54-3.22.81-4.91.81l-.05-.43c2.12,0,4.17-.49,6.13-1.46ZM282.42,27.76l1.78-1.78c1.04-1.19,2.12-2.07,3.24-2.65,1.12-.58,2.43-.9,3.94-.97l-.22.49c-1.44.14-2.63.48-3.56,1-.94.52-1.96,1.36-3.08,2.51l-1.67,1.73-.43-.32Z"/>
      <path class="cls-2" d="M298.43,29.98c1.24-2.09,2.88-3.88,4.91-5.37,2.03-1.49,4.19-2.24,6.45-2.24,1.51,0,2.63.23,3.35.68.72.45,1.08,1.14,1.08,2.08,0,1.22-.61,2.37-1.84,3.43-1.22,1.06-2.82,1.92-4.78,2.56-1.96.65-4.01.97-6.13.97v-.49c1.98,0,3.71-.31,5.18-.92,1.48-.61,2.65-1.39,3.51-2.35.86-.95,1.39-1.9,1.57-2.83.18-.79.13-1.41-.16-1.86-.29-.45-.83-.67-1.62-.67-1.22,0-2.4.55-3.54,1.65-1.13,1.1-2.17,2.55-3.1,4.35l-2.27,4.27c-.83,1.62-1.14,3.04-.94,4.27.2,1.22,1.2,1.84,3,1.84,1.3,0,2.66-.41,4.1-1.24,1.44-.83,3.01-2.01,4.72-3.54,1.71-1.53,3.93-3.68,6.67-6.45l.32-.32,1.78-1.78.32.38-1.67,1.73-2.05,2c-2.74,2.63-4.83,4.57-6.29,5.83-1.46,1.26-2.93,2.27-4.4,3.02-1.48.76-2.97,1.13-4.48,1.13-1.94,0-3.36-.39-4.24-1.16-.88-.77-1.32-1.88-1.32-3.32,0-1.66.62-3.53,1.86-5.62Z"/>
    </g>
  </g>
</svg>