<?xml version="1.0" encoding="UTF-8"?>
<svg id="_レイヤー_2" data-name="レイヤー 2" xmlns="http://www.w3.org/2000/svg" viewBox="0 0 301.87 359.14">
  <defs>
    <style>
      .cls-1 {
        stroke-width: .35px;
      }

      .cls-1, .cls-2 {
        fill: #bbc0c0;
        stroke: #bbc0c0;
        stroke-miterlimit: 10;
      }

      .cls-2 {
        stroke-width: 1.4px;
      }
    </style>
  </defs>
  <g id="txt">
    <g>
      <path class="cls-2" d="M78.87,324.09c4.22,2.51,6.34,7.39,5.86,12.66-.88,9.63-8.75,13.01-16.79,12.28-1.87-.17-3.73-.56-5.97-1.19-3.25,8.2-10.76,11.34-20.4,10.46-16.53-1.52-32.69-21-31.26-36.6.99-10.82,8.37-14.68,16.63-13.49,2.53.37,5.28,1.34,7.66,2.55l-2-4.72c-4.08-1.08-8.45-2.05-12.64-3.43C7.72,298.49.03,287.44.75,279.64c.31-3.37,2.26-7.02,6.75-6.61,10.84,1,17,14.74,21.77,26.02,2.57.66,5,1.38,7.43,2.17,14.54,4.81,28.46,22.24,26.8,40.3-.19,2.04-.72,4.19-1.44,6.17,1.44.49,3.15.93,5.9,1.18,8.03.74,15.75-2.52,16.64-12.15.48-5.2-1.57-10.06-5.8-12.58l.07-.06ZM29.13,299.04c-4.23-9.74-10.34-24.83-21.65-25.87-3.35-.31-6,2.14-6.31,5.51-.66,7.17,4.11,13.34,12.87,16.35,4.06,1.36,10.34,2.79,15.09,4.01ZM34.66,310.89c-2.77-1.39-5.99-2.39-8.93-2.66-7.7-.71-14.33,3.22-15.28,13.48-1.42,15.46,14.81,34.95,31.14,36.45,10.71.98,17.35-3.01,20.19-10.4-3.78-1.41-7.27-3.93-10.3-6.9-1.79,4.8-6.64,7.68-12.47,7.15-7.96-.73-17.03-9.29-16.23-18,.18-1.97.88-4.38,2.65-6.06v.14c-1.65,1.69-2.33,3.9-2.52,5.93-.81,8.78,8.48,17.15,16.11,17.85,5.35.49,10.52-2.08,12.39-7.08-7.36-7.34-12.19-18.62-16.76-29.88ZM61.86,347.61c.54-1.44,1.11-3.23,1.3-5.34.67-7.24-2.17-27.06-26.4-35.09-1.18-.39-2.56-.8-3.94-1.14l1.92,4.78c10.98,5.33,18.47,16.44,17.52,26.69-.1,1.12-.41,2.23-.7,3.2,2.89,3.03,6.38,5.48,10.3,6.9ZM51.43,340.63c.35-.89.59-2.07.69-3.13.92-10.05-6.36-21.13-17.28-26.46,4.55,11.4,9.42,22.34,16.58,29.58Z"/>
      <path class="cls-1" d="M9.85,256.87l1.34-5.51,45.08,40.15-1.34,5.51-45.08-40.15ZM59.81,276.5c-.75.65-1.68.9-2.79.76-1.11-.14-2.27-.77-3.5-1.9l-9.04-8.27c-1.45-1.29-2.65-1.86-3.59-1.73-.94.13-1.54.74-1.8,1.82-.33,1.37-.04,3.13.89,5.28.93,2.15,2.29,4.44,4.09,6.87,1.79,2.43,3.81,4.7,6.05,6.8l-.57.41c-3.78-3.67-6.78-7.4-9.03-11.18-2.24-3.79-3.01-7.13-2.31-10.02.6-2.45,1.78-3.86,3.56-4.23,1.78-.37,3.84.48,6.19,2.56l8.68,7.79c2.18,1.93,3.46,2.09,3.85.47.29-1.18-.15-2.84-1.31-4.99-1.16-2.15-3.18-5.42-6.06-9.8-1.32-2.03-2.62-4.04-3.91-6.01l-1.83-3.01.62-.32,1.8,2.85,3.35,5.09c2.17,3.23,3.85,5.81,5.04,7.76,1.19,1.95,2.09,3.82,2.72,5.6.63,1.79.78,3.34.46,4.66-.29,1.18-.81,2.09-1.56,2.73Z"/>
      <path class="cls-1" d="M63.76,259.13c-1.17.61-2.47.66-3.9.17-2.71-.94-5.25-2.76-7.59-5.44-2.35-2.68-4.02-5.72-5-9.1-.98-3.38-.98-6.5.01-9.36.58-1.67,1.34-2.83,2.29-3.49.95-.66,1.96-.84,3.03-.55,1.07.29,2.06.99,2.95,2.11l-.17.5c-.88-1-1.77-1.63-2.67-1.89-.9-.26-1.7-.16-2.42.28-.71.45-1.25,1.19-1.62,2.24-.65,1.86-.56,3.84.26,5.93.82,2.1,2.18,4.17,4.08,6.22l4.95,5.32c1.65,1.69,3.24,2.77,4.77,3.22,1.52.45,2.55-.09,3.08-1.61.45-1.29.16-3.15-.86-5.58-1.02-2.44-2.43-4.95-4.22-7.55-1.79-2.6-3.56-4.76-5.31-6.49l.51-.3c.61.69,1.25,1.39,1.91,2.1,1.93,2.27,3.64,4.56,5.14,6.87,1.49,2.31,2.59,4.61,3.28,6.9.7,2.3.73,4.35.1,6.16-.56,1.62-1.43,2.73-2.6,3.34ZM69.4,244.4c-.8.55-1.74.7-2.8.47-1.06-.24-2.18-.98-3.34-2.24l-12.99-14.2,1.84-5.28,14.62,15.97c1.08,1.18,1.94,1.78,2.57,1.81.63.03,1.04-.32,1.24-1.05.33-1.11.02-2.82-.94-5.13-.96-2.31-2.64-5.75-5.06-10.32-1.09-2.09-2.18-4.17-3.27-6.26l-1.54-3.18.65-.25,1.52,3.01,2.97,5.51c1.84,3.47,3.24,6.19,4.2,8.18.96,1.99,1.67,3.9,2.13,5.74.45,1.84.46,3.4.01,4.69-.4,1.14-1,1.99-1.8,2.54Z"/>
      <path class="cls-1" d="M81.97,213.37c-.85.47-1.8.54-2.83.2-1.04-.34-2.08-1.18-3.12-2.55l-32.12-42.28,2.33-5.09,33.58,44.2c1.77,2.31,3.01,2.68,3.73,1.12.48-1.05.35-2.74-.4-5.04-.75-2.31-2.09-5.87-4.04-10.7-.91-2.25-1.83-4.49-2.74-6.74l-1.23-3.31.67-.19,1.23,3.14,2.43,5.77c1.5,3.62,2.64,6.47,3.41,8.54.77,2.07,1.3,4.04,1.58,5.92.28,1.87.14,3.43-.43,4.67-.5,1.1-1.18,1.89-2.03,2.35ZM74.97,227.51c-1.22.49-2.52.43-3.9-.2-2.61-1.19-4.96-3.24-7.05-6.13-2.09-2.89-3.46-6.07-4.12-9.53-.66-3.46-.36-6.57.89-9.32.73-1.6,1.6-2.69,2.61-3.25,1.01-.56,2.03-.65,3.07-.26,1.04.39,1.95,1.18,2.74,2.37l-.22.48c-.78-1.08-1.61-1.79-2.48-2.13-.87-.34-1.68-.32-2.43.05-.75.38-1.36,1.07-1.82,2.08-.82,1.79-.92,3.77-.3,5.93.62,2.17,1.78,4.36,3.48,6.58l4.43,5.77c1.48,1.84,2.96,3.06,4.44,3.65,1.47.59,2.55.15,3.22-1.31.57-1.24.46-3.12-.33-5.64-.79-2.52-1.95-5.16-3.49-7.91-1.54-2.75-3.1-5.07-4.67-6.96l.53-.26c.55.75,1.11,1.51,1.7,2.27,1.71,2.44,3.2,4.88,4.47,7.32,1.27,2.44,2.14,4.83,2.62,7.18.48,2.35.32,4.4-.48,6.14-.71,1.56-1.68,2.59-2.9,3.08Z"/>
      <path class="cls-1" d="M68.93,171.05c-.86.16-1.68-.06-2.45-.65-.72-.57-1.19-1.37-1.4-2.4-.21-1.03-.08-1.97.38-2.81.44-.8,1.09-1.28,1.97-1.47.87-.18,1.66.03,2.36.65.74.64,1.23,1.46,1.45,2.47.22,1.01.1,1.94-.36,2.78-.44.8-1.08,1.27-1.95,1.43ZM89.54,197.79c-.88.41-1.83.41-2.84,0-1.01-.41-1.99-1.33-2.93-2.76l-10.46-16.15,2.69-4.91,11.78,18.16c1.6,2.43,2.81,2.89,3.64,1.39.56-1.02.54-2.7-.03-5.06-.58-2.35-1.67-6.01-3.26-10.96-.75-2.31-1.5-4.61-2.25-6.92l-.99-3.39.68-.14,1,3.22,2.01,5.93c1.24,3.72,2.17,6.64,2.79,8.76.62,2.12,1,4.13,1.15,6.01.14,1.89-.11,3.43-.76,4.62-.58,1.06-1.31,1.8-2.2,2.2Z"/>
      <path class="cls-1" d="M82.78,162.58l3.08-4.76,12.92,23.19-3.08,4.76-12.92-23.19ZM107.05,167.99c-.92.36-1.87.29-2.83-.21-.96-.5-1.86-1.5-2.7-3l-5.86-10.71c-.95-1.69-1.89-2.63-2.82-2.81-.93-.18-1.7.19-2.3,1.12-.74,1.14-1.03,2.89-.87,5.24.16,2.35.69,4.97,1.58,7.86.89,2.89,2.04,5.71,3.44,8.47l-.63.14c-2.36-4.7-3.98-9.21-4.85-13.53-.87-4.31-.5-7.72,1.11-10.22,1.37-2.12,2.95-3.06,4.75-2.83,1.8.23,3.47,1.72,5,4.45l5.68,10.15c1.39,2.58,2.55,3.15,3.49,1.71.63-.97.74-2.66.33-5.05-.41-2.39-1.23-6.12-2.46-11.17-.58-2.35-1.16-4.71-1.74-7.06l-.74-3.45.69-.09.76,3.28,1.58,6.06c.96,3.8,1.68,6.78,2.14,8.94.47,2.16.7,4.19.71,6.08s-.36,3.41-1.1,4.56c-.66,1.02-1.45,1.71-2.37,2.07Z"/>
      <path class="cls-1" d="M116.57,152.88c-1.3.2-2.55-.17-3.74-1.1-2.26-1.77-4.07-4.3-5.43-7.6-1.36-3.3-1.95-6.71-1.79-10.23.16-3.52,1.17-6.47,3.04-8.85,1.09-1.39,2.18-2.24,3.29-2.56,1.11-.32,2.13-.16,3.05.46.92.62,1.62,1.61,2.11,2.95l-.28.36c-.51-1.23-1.15-2.11-1.91-2.65-.77-.53-1.57-.7-2.4-.49-.84.21-1.6.75-2.28,1.63-1.21,1.55-1.77,3.45-1.67,5.7.1,2.25.71,4.65,1.85,7.21l2.97,6.64c1.02,2.14,2.17,3.67,3.47,4.58,1.3.92,2.44.74,3.44-.53.84-1.07,1.18-2.93,1.01-5.59-.16-2.65-.68-5.51-1.56-8.56-.88-3.05-1.84-5.66-2.9-7.83l.53-.06c.36.85.73,1.72,1.13,2.61,1.09,2.77,1.97,5.49,2.64,8.16.67,2.67.96,5.2.88,7.59-.08,2.4-.71,4.35-1.89,5.86-1.06,1.35-2.24,2.12-3.54,2.32ZM128.1,176.43c-1.6.25-3-.09-4.19-1.02-1.47-1.15-2.29-2.46-2.45-3.93-.16-1.47.15-2.7.92-3.69.56-.71,1.18-1.11,1.88-1.17.69-.07,1.37.25,2.03.96.61.61.94,1.36.98,2.25.04.89-.21,1.68-.74,2.35-.59.75-1.33,1.07-2.23.95-.9-.12-1.71-.57-2.45-1.34l.17-.83c.33.96.69,1.72,1.06,2.27.37.55.9,1.08,1.57,1.61,1.03.81,2.22,1.03,3.56.67,1.34-.36,2.57-1.26,3.68-2.69,1.34-1.71,1.94-3.57,1.82-5.58-.12-2.01-.72-4.3-1.78-6.86l-.44-.92-17.82-39.93,3.45-4.41,17.02,38.25c1.49,3.41,2.25,6.78,2.26,10.12.01,3.34-1.14,6.5-3.47,9.47-1.61,2.06-3.22,3.22-4.83,3.47Z"/>
      <path class="cls-1" d="M125.59,87.84c-1.78.2-3.43-.48-4.95-2.03-3.25-3.31-3.96-7.33-2.13-12.05,1.83-4.72,4.95-9.25,9.38-13.6,1.51-1.48,3.24-3.02,5.18-4.6s4.24-3.4,6.89-5.44c3.05-2.36,5.57-4.36,7.57-6,1.99-1.64,3.83-3.29,5.53-4.95l.27-.26c2.2-2.22,4.03-4.51,5.49-6.87,1.46-2.35,2.31-4.39,2.54-6.1l.75.11-.23,1.49c-.26,1.53-.63,3.05-1.09,4.56-.46,1.51-1.15,3.07-2.08,4.68-.92,1.61-2.11,3.13-3.54,4.54-1.69,1.66-3.62,3.27-5.79,4.84-2.17,1.57-4.83,3.37-7.99,5.4-3.3,2.18-5.98,4.02-8.04,5.51-2.06,1.5-3.9,3.04-5.52,4.63-4.03,3.95-6.9,8.1-8.62,12.43-1.72,4.33-1.06,8.04,1.98,11.14,1.34,1.37,2.81,1.95,4.42,1.75,1.61-.2,3.13-1,4.57-2.42,1.51-1.48,2.73-3.53,3.67-6.14s1.44-5.47,1.53-8.59c.08-3.12-.4-6.11-1.44-8.97l.75-.31c1.04,3,1.52,6.12,1.43,9.34-.08,3.23-.62,6.19-1.61,8.89-.99,2.7-2.27,4.83-3.86,6.38-1.58,1.55-3.27,2.43-5.05,2.62ZM134.29,120.35c-.91,0-1.72-.35-2.42-1.07-.92-.94-1.31-2.03-1.17-3.3.14-1.26.65-2.34,1.55-3.22.79-.78,1.6-1.18,2.42-1.21.82-.03,1.57.3,2.24.98.92.94,1.35,2.06,1.3,3.38-.05,1.32-.52,2.42-1.42,3.3-.75.74-1.59,1.12-2.5,1.13ZM141.74,121.09c-2.04.77-3.88.97-5.54.62-1.65-.35-3.08-1.14-4.28-2.37l1.78-2.07c.88,1.61,2.04,2.66,3.5,3.13,1.46.48,3.07.36,4.84-.35,1.77-.71,3.57-1.97,5.41-3.77,2.01-1.98,3.45-3.93,4.31-5.87.86-1.93,1.27-3.94,1.23-6.03-.03-2.09-.41-4.57-1.13-7.47-.34-1.36-.71-2.7-1.08-4.02l-6.06-20.85c-1.1-3.79-1.62-7.26-1.53-10.41.08-3.15.57-5.98,1.47-8.49.9-2.5,2.09-4.98,3.57-7.42l.48.27c-.84,1.81-1.42,3.71-1.76,5.7-.34,1.99-.38,4.26-.12,6.79.26,2.53.86,5.43,1.79,8.68l.1.43,6.01,20.59c1.66,5.79,1.92,11.06.79,15.8-1.13,4.75-3.64,9.03-7.53,12.84-2.12,2.08-4.2,3.51-6.24,4.27ZM140.37,96.32c.17-2.92.86-5.69,2.06-8.32,1.2-2.62,3-5.96,5.39-10l.05-.05.54-.85c2.28-3.86,4.06-7.18,5.33-9.95,1.27-2.77,2.08-5.63,2.43-8.58l.75.11c-.35,3.1-1.19,6.07-2.52,8.93-1.33,2.86-3.2,6.29-5.63,10.29l-.27.48c-2.39,3.97-4.17,7.25-5.33,9.84-1.16,2.59-1.83,5.29-2,8.11-.17,2.81.44,5.8,1.84,8.95l-.75.31c-1.43-3.26-2.06-6.35-1.89-9.27ZM156.69,66.6c-.44-2.43-.61-5.07-.51-7.92l.7.06c-.09,2.28.17,4.37.8,6.26.62,1.9,1.46,3.53,2.52,4.89l-1.25,2.5c-1.06-1.44-1.8-3.37-2.24-5.79Z"/>
      <path class="cls-1" d="M178.85,87.43c-.97.03-1.83-.34-2.59-1.13-.75-.78-1.29-2.02-1.59-3.71l-6.36-34.73c-.79-4.07-.93-7.89-.41-11.45.51-3.56,1.56-6.74,3.13-9.54,1.58-2.8,3.57-5.15,5.97-7.07l.47.59c-2.88,2.29-4.69,5.27-5.44,8.96-.74,3.68-.6,8.11.42,13.28l6.96,38.89c.53,2.86,1.47,3.76,2.81,2.69.91-.72,1.56-2.29,1.96-4.7.4-2.41.82-6.33,1.27-11.77.14-1.53.24-2.67.31-3.43.07-.76.15-1.89.25-3.39l.4-3.51.68.13-.33,3.35-.45,6.24c-.3,3.91-.58,6.97-.83,9.16-.25,2.2-.68,4.19-1.28,5.99-.6,1.8-1.43,3.12-2.5,3.97-.95.75-1.91,1.14-2.88,1.18Z"/>
      <path class="cls-1" d="M193.07,75.56c-1.46-.12-2.67-.86-3.62-2.22-1.5-2.15-2.43-4.97-2.8-8.46-.37-3.49.02-6.93,1.19-10.32,1.17-3.39,3.18-6.08,6.03-8.07,1.49-1.04,2.81-1.51,3.98-1.43,1.16.08,2.1.5,2.82,1.26.71.76,1.22,1.62,1.52,2.58l-.92.27c-.17-1.04-.6-1.85-1.28-2.43-.68-.57-1.46-.86-2.35-.85-.89,0-1.75.29-2.57.87-1.61,1.12-2.73,2.79-3.34,5-.61,2.21-.75,4.57-.4,7.1l.88,7.22c.37,2.57,1.08,4.52,2.1,5.86,1.03,1.34,2.29,1.49,3.77.46,1.49-1.04,2.65-2.7,3.47-5,.83-2.3,1.34-4.8,1.53-7.52.2-2.72.15-5.17-.15-7.36.49.09.96.02,1.42-.21.46-.23.97-.54,1.55-.94,2.03-1.41,3.31-3.66,3.87-6.75l.62-3.47.67.17-.54,3.32c-.25,1.59-.74,3.02-1.47,4.3-.74,1.28-1.72,2.35-2.96,3.22-1.28.89-2.49,1.38-3.63,1.47-1.14.09-2.04-.35-2.7-1.3-.66-.95-.92-1.98-.78-3.1.14-1.11.53-1.89,1.15-2.32.33-.23.71-.31,1.13-.23s.79.34,1.11.8c.89,1.28,1.46,3.76,1.68,7.44.23,3.68-.17,7.36-1.19,11.06-1.02,3.69-2.79,6.42-5.32,8.17-1.53,1.07-3.03,1.54-4.49,1.42Z"/>
      <path class="cls-1" d="M213.65,59.5c-1.51-1-2.31-3.13-2.39-6.37l-.39-17.01,4.95-2.76.39,19.95c0,2.08.39,3.44,1.15,4.08.76.64,1.67.67,2.73.08,1.23-.69,2.24-1.9,3.03-3.64.79-1.74,1.38-3.9,1.76-6.48.38-2.58.58-5.55.61-8.91l.62.18c-.05,5.4-.56,9.81-1.54,13.23-.97,3.43-2.61,5.78-4.89,7.06-2.51,1.4-4.52,1.6-6.03.59ZM229.95,51.24c-1.39-.52-2.46-1.6-3.23-3.22-.76-1.62-1.17-3.46-1.21-5.51l-.31-14.37,4.89-2.72.42,18.29c.08,2.21.49,3.88,1.24,5.02.75,1.14,1.79,1.34,3.11.6,1.23-.69,2.38-2.2,3.43-4.55,1.06-2.35,1.86-4.95,2.41-7.79.55-2.84.71-5.24.49-7.2-1.09-1.24-2.01-2.52-2.74-3.84l-.18-.33c-.22-.4-.39-.95-.5-1.67-.11-.72-.07-1.39.13-2.02.2-.63.64-.99,1.34-1.09-.72.46-1.08,1.21-1.08,2.25,0,1.04.22,2.04.64,3.02.51,1.33,1.04,2.31,1.59,2.92.55.62,1.17.95,1.86,1,.69.05,1.54-.21,2.55-.78,1.1-.61,2.1-1.52,2.99-2.71.89-1.19,1.56-2.54,1.98-4.05l.96-3.39.65.24-.87,3.25c-.42,1.62-1.12,3.09-2.09,4.41-.97,1.32-2.09,2.33-3.37,3.05-1.54.86-2.88,1.17-4.02.94-1.14-.23-2.12-1.09-2.96-2.59-.83-1.5-1.24-3.05-1.21-4.65.03-1.6.51-2.66,1.43-3.18.57-.32,1.07-.36,1.48-.13.42.23.77.61,1.07,1.14,1.03,1.85,1.46,4.89,1.27,9.11-.18,4.23-.93,8.29-2.24,12.2-1.31,3.91-3.03,6.45-5.14,7.63-1.81,1.01-3.4,1.25-4.79.72Z"/>
      <path class="cls-1" d="M249.95,26.89c.43-3.37,1.53-6.59,3.3-9.64,1.77-3.05,4.12-5.22,7.03-6.49,1.94-.85,3.5-1.18,4.67-1.01,1.18.18,2.03.86,2.55,2.06.69,1.57.54,3.38-.44,5.43-.98,2.05-2.54,4.04-4.7,5.97-2.16,1.93-4.6,3.49-7.32,4.68l-.27-.62c2.54-1.11,4.59-2.47,6.14-4.08,1.55-1.61,2.62-3.27,3.19-4.98.58-1.71.72-3.21.42-4.51-.21-1.12-.63-1.88-1.25-2.3-.62-.42-1.44-.4-2.46.04-1.57.68-2.78,2.05-3.62,4.09-.84,2.04-1.36,4.48-1.55,7.32l-.52,6.74c-.16,2.54.24,4.54,1.17,6,.94,1.46,2.56,1.69,4.87.68,1.66-.73,3.19-2.02,4.57-3.89,1.38-1.87,2.75-4.26,4.09-7.18,1.34-2.92,2.99-6.92,4.95-12.01l.23-.6,1.29-3.28.63.3-1.18,3.15-1.52,3.71c-2.04,4.9-3.64,8.57-4.81,11-1.17,2.43-2.49,4.55-3.96,6.34-1.47,1.8-3.18,3.12-5.12,3.96-2.5,1.09-4.53,1.38-6.09.88-1.57-.5-2.75-1.67-3.56-3.52-.93-2.12-1.18-4.87-.75-8.25Z"/>
      <path class="cls-1" d="M277.58,4.67l5.35-1.89-3.95,26.25-5.35,1.89,3.95-26.25ZM279.93,18.36c.98-4.78,2.19-8.77,3.63-11.95,1.44-3.18,3.23-5.15,5.37-5.91,1.24-.44,2.28-.43,3.13.01.85.45,1.46,1.19,1.83,2.24.4,1.14.53,2.37.38,3.68-.15,1.31-.53,2.46-1.14,3.45-.61.99-1.32,1.63-2.13,1.92-.76.27-1.43.27-2.01-.01s-1-.85-1.25-1.72c-.29-.97-.17-1.92.35-2.85.52-.93,1.26-1.57,2.21-1.91.76-.27,1.38-.17,1.87.3.49.47.76,1.23.81,2.28l-.41-.02c.31-.64.48-1.39.53-2.23.05-.85-.09-1.72-.41-2.62-.29-.81-.75-1.38-1.41-1.71-.65-.33-1.38-.35-2.19-.07-2.04.72-3.81,2.88-5.29,6.48-1.48,3.6-2.74,8.01-3.78,13.24l-.58-.28.46-2.33ZM289.95,12.21c-.65-.17-1.19-.64-1.62-1.39l.3-.51c.36.57.82.93,1.38,1.07.56.15,1.2.1,1.91-.15,1.71-.6,3.19-1.45,4.44-2.53,1.25-1.08,2.29-2.49,3.12-4.23l1.57-3.28.6.35-1.45,3.16c-.77,1.77-1.83,3.27-3.18,4.49-1.36,1.23-2.99,2.18-4.89,2.85-.81.29-1.54.34-2.18.17Z"/>
    </g>
  </g>
</svg>