<?xml version="1.0" encoding="UTF-8"?>
<svg id="_レイヤー_2" data-name="レイヤー 2" xmlns="http://www.w3.org/2000/svg" viewBox="0 0 376.66 56.73">
  <defs>
    <style>
      .cls-1 {
        fill: #c0b86c;
        stroke: #c0b86c;
        stroke-miterlimit: 10;
        stroke-width: .25px;
      }
    </style>
  </defs>
  <g id="txt">
    <g>
      <path class="cls-1" d="M4.26,38.38c-1.42-.63-2.47-1.45-3.13-2.46-.67-1.01-1-2.12-1-3.35l1.94-.16c-.36,1.26-.29,2.38.22,3.35.5.97,1.39,1.72,2.65,2.24,1.26.52,2.81.78,4.64.78,2.2,0,4.08-.38,5.64-1.13,1.57-.76,2.94-1.86,4.13-3.32,1.19-1.46,2.43-3.39,3.73-5.81l7.34-13.66c1.22-2.27,2.55-4.14,3.97-5.62,1.42-1.48,2.89-2.64,4.4-3.48,1.51-.85,3.17-1.56,4.97-2.13l.22.38c-1.33.61-2.55,1.45-3.64,2.51-1.1,1.06-2.19,2.44-3.27,4.13-.72,1.08-1.49,2.39-2.32,3.94l-6.97,13.01c-2.16,4.03-4.71,6.99-7.64,8.88-2.93,1.89-6.45,2.83-10.56,2.83-2.12,0-3.9-.32-5.32-.95ZM.83,34.28c-.47-.45-.7-1.02-.7-1.7,0-.94.35-1.69,1.05-2.27.7-.58,1.5-.86,2.4-.86.76,0,1.36.2,1.81.59.45.4.68.92.68,1.57,0,.94-.34,1.73-1.03,2.38-.68.65-1.48.97-2.38.97-.76,0-1.37-.22-1.84-.68ZM8.74,21.59c-1.17-.99-1.76-2.33-1.76-4.02,0-2.88,1.4-5.67,4.19-8.37,2.79-2.7,6.46-4.89,11.02-6.56C26.74.96,31.52.12,36.52.12c3.71,0,6.85.47,9.42,1.4,2.57.94,4.5,2.16,5.78,3.67,1.28,1.51,1.92,3.11,1.92,4.81,0,2.34-.86,4.37-2.59,6.08-1.73,1.71-4.04,3-6.94,3.86-2.9.86-6.04,1.3-9.42,1.3v-.54c2.84,0,5.44-.47,7.78-1.4,2.34-.94,4.19-2.24,5.56-3.92,1.37-1.67,2.05-3.55,2.05-5.64,0-1.51-.52-2.93-1.57-4.27-1.04-1.33-2.66-2.42-4.83-3.27-2.18-.85-4.91-1.27-8.18-1.27-4.36,0-8.54.79-12.56,2.38-4.01,1.58-7.25,3.64-9.72,6.16-2.47,2.52-3.7,5.13-3.7,7.83,0,1.51.46,2.69,1.38,3.54.92.85,2.22,1.27,3.92,1.27,1.91,0,4.08-.56,6.51-1.67,2.43-1.12,4.8-2.54,7.1-4.27,2.3-1.73,4.21-3.46,5.72-5.18l.22.43c-1.62,1.87-3.65,3.71-6.1,5.51-2.45,1.8-4.98,3.28-7.59,4.43-2.61,1.15-4.96,1.73-7.05,1.73s-3.72-.49-4.89-1.48ZM27.56,38.87c-1.58-.49-2.85-1.2-3.81-2.13-.95-.94-1.43-2.02-1.43-3.24h.54c0,1.04.39,1.95,1.16,2.73.77.77,1.8,1.38,3.08,1.81,1.28.43,2.65.65,4.13.65,1.91,0,3.75-.5,5.53-1.51,1.78-1.01,3.23-2.39,4.35-4.16,1.12-1.76,1.67-3.74,1.67-5.94,0-1.26-.32-2.33-.97-3.21-.65-.88-1.48-1.55-2.51-2-1.03-.45-2.1-.67-3.21-.67v-.54c2.16,0,4.03.29,5.62.86,1.58.58,2.8,1.41,3.64,2.51.85,1.1,1.27,2.44,1.27,4.02,0,2.3-.62,4.33-1.86,6.07-1.24,1.75-2.93,3.1-5.05,4.05-2.12.95-4.46,1.43-7.02,1.43-1.84,0-3.55-.24-5.13-.73Z"/>
      <path class="cls-1" d="M50.8,29.5c1.24-2.09,2.88-3.88,4.91-5.37,2.03-1.49,4.18-2.24,6.45-2.24,1.51,0,2.63.23,3.35.68.72.45,1.08,1.14,1.08,2.08,0,1.22-.61,2.37-1.84,3.43-1.22,1.06-2.82,1.92-4.78,2.56-1.96.65-4,.97-6.13.97v-.49c1.98,0,3.71-.31,5.18-.92,1.48-.61,2.65-1.39,3.51-2.35.86-.95,1.39-1.9,1.57-2.83.18-.79.13-1.41-.16-1.86-.29-.45-.83-.67-1.62-.67-1.22,0-2.4.55-3.54,1.65-1.13,1.1-2.17,2.55-3.1,4.35l-2.27,4.27c-.83,1.62-1.14,3.04-.94,4.27.2,1.22,1.2,1.84,3,1.84,1.3,0,2.66-.41,4.1-1.24,1.44-.83,3.02-2.01,4.73-3.54,1.71-1.53,3.93-3.68,6.67-6.45l.32-.32,1.78-1.78.32.38-1.67,1.73-2.05,2c-2.74,2.63-4.83,4.57-6.29,5.83-1.46,1.26-2.93,2.27-4.4,3.02-1.48.76-2.97,1.13-4.48,1.13-1.94,0-3.36-.39-4.24-1.16-.88-.77-1.32-1.88-1.32-3.32,0-1.66.62-3.53,1.86-5.62Z"/>
      <path class="cls-1" d="M69.03,38.57c-.68-.65-1.03-1.51-1.03-2.59,0-2.05.63-4.19,1.89-6.4,1.26-2.21,2.92-4.05,4.97-5.51s4.16-2.19,6.32-2.19c1.26,0,2.22.24,2.89.73.67.49,1.03,1.13,1.08,1.92.05.79-.19,1.62-.73,2.48h-.38c.47-.83.68-1.57.65-2.24-.04-.67-.29-1.19-.76-1.57-.47-.38-1.1-.57-1.89-.57-1.4,0-2.72.52-3.94,1.57-1.22,1.04-2.3,2.45-3.24,4.21l-2.43,4.59c-.76,1.51-1.11,2.83-1.05,3.97.05,1.13.66,1.7,1.81,1.7.97,0,2.16-.63,3.56-1.89,1.4-1.26,2.77-2.8,4.1-4.62,1.33-1.82,2.38-3.52,3.13-5.1l.32.27c-.32.58-.65,1.17-.97,1.78-1.08,1.84-2.22,3.53-3.43,5.08-1.21,1.55-2.5,2.83-3.89,3.83-1.39,1.01-2.76,1.51-4.13,1.51-1.22,0-2.18-.32-2.86-.97ZM80.29,38.92c-.56-.41-.88-1.01-.97-1.78-.09-.77.15-1.7.73-2.78l6.53-12.1h4l-7.34,13.61c-.54,1.01-.75,1.73-.62,2.16.13.43.46.63,1,.59.83-.04,1.91-.65,3.24-1.84,1.33-1.19,3.26-3.13,5.78-5.83,1.15-1.22,2.3-2.45,3.46-3.67l1.78-1.78.32.38-1.67,1.73-3.02,3.29c-1.91,2.05-3.42,3.64-4.54,4.75-1.12,1.12-2.24,2.04-3.38,2.78-1.13.74-2.19,1.11-3.16,1.11-.86,0-1.58-.21-2.13-.62Z"/>
      <path class="cls-1" d="M93.81,38.57c-.68-.65-1.03-1.51-1.03-2.59,0-2.05.63-4.19,1.89-6.4,1.26-2.21,2.92-4.05,4.97-5.51,2.05-1.46,4.16-2.19,6.32-2.19,1.26,0,2.22.24,2.89.73.67.49,1.03,1.13,1.08,1.92.05.79-.19,1.62-.73,2.48h-.38c.47-.83.68-1.57.65-2.24-.04-.67-.29-1.19-.76-1.57s-1.1-.57-1.89-.57c-1.4,0-2.72.52-3.94,1.57-1.22,1.04-2.3,2.45-3.24,4.21l-2.43,4.59c-.76,1.51-1.11,2.83-1.05,3.97.05,1.13.66,1.7,1.81,1.7.97,0,2.16-.63,3.56-1.89,1.4-1.26,2.77-2.8,4.1-4.62,1.33-1.82,2.38-3.52,3.13-5.1l.32.27c-.32.58-.65,1.17-.97,1.78-1.08,1.84-2.22,3.53-3.43,5.08-1.21,1.55-2.5,2.83-3.89,3.83-1.39,1.01-2.76,1.51-4.13,1.51-1.22,0-2.18-.32-2.86-.97ZM105.07,38.92c-.56-.41-.88-1.01-.97-1.78-.09-.77.15-1.7.73-2.78L122.76.94h4l-18.74,34.94c-.97,1.84-.85,2.75.38,2.75.83,0,1.88-.58,3.16-1.76,1.28-1.17,3.19-3.1,5.75-5.8,1.19-1.26,2.38-2.52,3.56-3.78l1.78-1.78.32.38-1.67,1.73-3.02,3.29c-1.91,2.05-3.42,3.64-4.54,4.75-1.12,1.12-2.24,2.04-3.38,2.78-1.13.74-2.19,1.11-3.16,1.11-.86,0-1.58-.21-2.13-.62Z"/>
      <path class="cls-1" d="M116.2,38.6c-.81-.63-1.22-1.38-1.22-2.24,0-.79.26-1.47.78-2.02.52-.56,1.14-.84,1.86-.84.61,0,1.07.18,1.38.54.31.36.44.81.41,1.35-.04.54-.25,1.02-.65,1.43-.4.41-.88.62-1.46.62-.76.04-1.24-.17-1.46-.62-.22-.45-.27-.98-.16-1.59.04-.04.05-.09.05-.16h.49c-.43.36-.65.81-.65,1.35,0,.65.33,1.22,1,1.73.67.5,1.5.76,2.51.76,1.48,0,2.74-.31,3.78-.92,1.04-.61,1.86-1.55,2.46-2.81.59-1.26,1.02-2.84,1.27-4.75.11-.83.22-1.64.32-2.43.25-1.58.59-2.89,1.03-3.92.43-1.03,1.03-1.81,1.78-2.35.43-.32.91-.57,1.43-.73.52-.16,1.05-.24,1.59-.24.65,0,1.08.14,1.3.43.22.29.21.59-.03.89-.23.31-.6.46-1.11.46-.25,0-.74-.09-1.46-.27-.43-.14-.77-.21-1-.19-.23.02-.42.15-.57.41-.25.32-.36.81-.32,1.46s.14,1.58.32,2.81c.11.61.21,1.24.3,1.89.09.65.14,1.24.14,1.78,0,1.87-.48,3.5-1.43,4.89-.95,1.39-2.23,2.44-3.83,3.16s-3.39,1.08-5.37,1.08c-1.51,0-2.67-.32-3.48-.95ZM125.81,37.65c1.96-.97,3.74-2.15,5.35-3.54,1.6-1.39,3.54-3.21,5.8-5.48l1.35-1.35,1.78-1.78.32.38-1.67,1.73c-3.28,3.38-6.05,5.95-8.32,7.7-2.27,1.75-4.19,2.89-5.78,3.43-1.58.54-3.22.81-4.91.81l-.05-.43c2.12,0,4.17-.49,6.13-1.46ZM120.87,27.29l1.78-1.78c1.04-1.19,2.12-2.07,3.24-2.65,1.12-.58,2.43-.9,3.94-.97l-.22.49c-1.44.14-2.63.48-3.56,1-.94.52-1.96,1.36-3.08,2.51l-1.67,1.73-.43-.32Z"/>
      <path class="cls-1" d="M163.47,30.53c1.22-2.48,2.87-4.66,4.94-6.53,2.07-1.87,4.4-2.81,6.99-2.81,1.69,0,3.01.39,3.94,1.16.94.77,1.4,1.85,1.4,3.21,0,2.81-1.02,5.3-3.05,7.48-2.03,2.18-4.64,3.85-7.8,5.02-3.17,1.17-6.34,1.75-9.5,1.75-2.38,0-4.49-.34-6.35-1.03-1.85-.68-3.3-1.68-4.35-3-1.04-1.31-1.57-2.89-1.57-4.73,0-2.77,1.04-5.27,3.13-7.48,2.09-2.21,4.97-3.94,8.64-5.18,3.67-1.24,7.78-1.86,12.31-1.86.58,0,1.02.04,1.32.11.31.07.46.16.46.27,0,.32-.63.49-1.89.49-1.84,0-3.47-.26-4.89-.78-1.42-.52-2.53-1.21-3.32-2.05-.79-.85-1.19-1.75-1.19-2.73,0-1.91.78-3.77,2.35-5.59,1.57-1.82,3.55-3.28,5.97-4.4,2.41-1.12,4.84-1.67,7.29-1.67,1.69,0,3.04.29,4.05.86,1.01.58,1.51,1.39,1.51,2.43,0,1.87-1.11,3.56-3.32,5.05-2.21,1.49-4.94,2.66-8.18,3.48-3.24.83-6.28,1.24-9.13,1.24-2.45,0-4.66-.21-6.64-.62-1.98-.41-3.54-1.04-4.67-1.89-1.13-.85-1.7-1.84-1.7-3,0-1.3.54-2.32,1.62-3.08,1.08-.76,2.47-1.13,4.16-1.13.68,0,1.4.09,2.16.27.76.18,1.49.43,2.21.76l-.16.49c-1.01-.43-2-.65-2.97-.65-1.33,0-2.43.33-3.29,1-.86.67-1.3,1.56-1.3,2.67,0,1.55.94,2.71,2.81,3.48,1.87.77,4.43,1.16,7.67,1.16,2.74,0,5.61-.39,8.61-1.16,3.01-.77,5.52-1.87,7.53-3.29,2.02-1.42,3.02-3.01,3.02-4.78,0-.83-.32-1.48-.94-1.94-.63-.47-1.5-.7-2.62-.7-1.94,0-3.9.57-5.86,1.7-1.96,1.13-3.56,2.61-4.81,4.43-1.24,1.82-1.86,3.72-1.86,5.7,0,1.19.49,2.17,1.46,2.94.97.77,2.45,1.16,4.43,1.16.83,0,1.24.04,1.24.11l-1.13.05c-3.71,0-7.09.69-10.15,2.08-3.06,1.39-5.46,3.21-7.21,5.48-1.75,2.27-2.62,4.64-2.62,7.13,0,2.23.81,4.01,2.43,5.32,1.62,1.31,3.92,1.97,6.91,1.97,2.77,0,5.6-.56,8.48-1.67,2.88-1.12,5.26-2.65,7.13-4.62,1.87-1.96,2.81-4.17,2.81-6.62,0-1.19-.39-2.06-1.16-2.62-.77-.56-1.94-.84-3.48-.84-2.52,0-4.78.85-6.78,2.54-2,1.69-3.57,3.68-4.73,5.97-1.15,2.29-1.82,4.22-2,5.8l-.54-.11c.22-1.66.94-3.73,2.16-6.21Z"/>
      <path class="cls-1" d="M188.15,22.26h4.05l-8.91,16.74h-4.05l8.91-16.74ZM198.82,23.91c-.23-.63-.75-.95-1.54-.95-.97,0-2.13.5-3.48,1.51-1.35,1.01-2.72,2.34-4.1,4-1.39,1.66-2.64,3.44-3.75,5.35l-.32-.32c1.87-3.24,3.94-5.96,6.21-8.15,2.27-2.2,4.46-3.29,6.59-3.29,1.84,0,3.02.59,3.56,1.75.54,1.17.29,2.75-.76,4.73l-5.56,10.48h-4.05l6.64-12.31c.61-1.22.8-2.15.57-2.78ZM206.73,38.92c-.58-.41-.91-1.01-1-1.78-.09-.77.15-1.7.73-2.78l4.16-7.67c.65-1.22.85-2.15.62-2.78-.23-.63-.77-.95-1.59-.95-.97,0-2.13.5-3.48,1.51-1.35,1.01-2.72,2.35-4.1,4.02-1.39,1.67-2.62,3.45-3.7,5.32l-.38-.32c1.91-3.24,3.99-5.96,6.24-8.15,2.25-2.2,4.44-3.29,6.56-3.29,1.8,0,2.98.59,3.54,1.75.56,1.17.31,2.75-.73,4.73l-3.89,7.34c-.97,1.84-.86,2.75.32,2.75.86,0,1.94-.58,3.24-1.76,1.3-1.17,3.22-3.12,5.78-5.86,1.19-1.26,2.36-2.5,3.51-3.73l1.78-1.78.32.38-1.67,1.73-2.97,3.19c-1.87,2.05-3.38,3.65-4.54,4.81s-2.29,2.1-3.43,2.83c-1.13.74-2.19,1.11-3.16,1.11-.86,0-1.58-.21-2.16-.62Z"/>
      <path class="cls-1" d="M220.66,38.38c-.65-.77-.91-1.82-.78-3.13.13-1.31.6-2.74,1.43-4.29L237.24.94h4.05l-17.44,32.89c-.72,1.37-1.06,2.55-1.03,3.54.04.99.5,1.48,1.4,1.48,1.12,0,2.43-.55,3.94-1.65,1.51-1.1,2.94-2.45,4.29-4.05,1.35-1.6,2.29-3.09,2.83-4.46,0,.25.09.46.27.62.18.16.43.28.76.35.32.07.68.11,1.08.11.9,0,1.84-.22,2.81-.65.97-.43,1.87-1.04,2.7-1.84l1.78-1.78.32.38-1.67,1.73c-.86.86-1.83,1.54-2.89,2.02-1.06.49-2.12.73-3.16.73-1.19,0-2.05-.28-2.59-.84-.54-.56-.81-1.45-.81-2.67s.29-2.32.86-3.29c.58-.97,1.24-1.46,2-1.46.47,0,.79.14.97.43.18.29.27.65.27,1.08,0,1.51-.8,3.56-2.4,6.16-1.6,2.59-3.52,4.87-5.75,6.83-2.23,1.96-4.27,2.94-6.1,2.94-1.4,0-2.43-.39-3.08-1.16Z"/>
      <path class="cls-1" d="M246.31,22.26h4.05l-8.91,16.74h-4.05l8.91-16.74ZM244.63,32.04c1.8-2.99,3.56-5.38,5.29-7.18,1.73-1.8,3.4-2.7,5.02-2.7.94,0,1.64.25,2.11.76.47.5.7,1.15.7,1.94,0,.86-.21,1.72-.62,2.56-.41.85-.94,1.53-1.59,2.05-.65.52-1.28.78-1.89.78-.58,0-1.03-.16-1.35-.49-.32-.32-.47-.81-.43-1.46.04-.72.34-1.33.92-1.84.58-.5,1.22-.76,1.94-.76.58,0,.97.22,1.19.65.22.43.22,1.01,0,1.73l-.27-.11c.36-.36.66-.82.89-1.38.23-.56.35-1.18.35-1.86,0-.61-.18-1.11-.54-1.49-.36-.38-.85-.57-1.46-.57-1.55,0-3.25,1.04-5.1,3.1-1.85,2.07-3.75,4.74-5.7,8.02l-.32-.32.86-1.46ZM252.84,30.28c-.4-.27-.65-.71-.76-1.32l.32-.27c.11.47.33.82.68,1.05.34.23.78.35,1.32.35,1.3,0,2.49-.22,3.59-.65,1.1-.43,2.13-1.13,3.1-2.11l1.84-1.84.32.38-1.73,1.78c-.94,1.01-2.01,1.76-3.21,2.27-1.21.5-2.53.76-3.97.76-.61,0-1.12-.14-1.51-.41Z"/>
      <path class="cls-1" d="M259.13,38.6c-.81-.67-1.21-1.59-1.21-2.78,0-1.87.6-3.91,1.81-6.1,1.21-2.2,2.84-4.05,4.91-5.56,2.07-1.51,4.35-2.27,6.83-2.27,1.3,0,2.27.26,2.92.78.65.52,1.03,1.15,1.13,1.89.11.74.05,1.45-.16,2.13l-.65-.22c.32-.68.4-1.33.24-1.94-.16-.61-.5-1.1-1.03-1.46-.52-.36-1.14-.54-1.86-.54-1.4,0-2.74.52-4,1.57-1.26,1.04-2.3,2.38-3.13,4l-2.43,4.59c-.83,1.66-1.21,3.09-1.16,4.29.05,1.21.73,1.81,2.02,1.81s2.65-.5,4.08-1.51c1.42-1.01,2.74-2.27,3.97-3.78,1.22-1.51,2.2-2.97,2.92-4.37.25.25.56.4.92.46.36.05.79.08,1.3.08,1.76,0,3.44-.79,5.02-2.38l1.78-1.78.32.38-1.67,1.73c-.79.83-1.67,1.47-2.62,1.92-.95.45-1.97.68-3.05.68s-2.03-.21-2.73-.62c-.7-.41-1.05-1.03-1.05-1.86s.27-1.54.81-2.13,1.08-.89,1.62-.89c.29,0,.54.11.76.32.22.22.32.52.32.92,0,1.12-.68,2.8-2.05,5.05-1.37,2.25-3.1,4.25-5.21,5.99-2.11,1.75-4.26,2.62-6.45,2.62-1.33,0-2.4-.33-3.21-1Z"/>
      <path class="cls-1" d="M278.79,38.92c-.56-.41-.88-1.01-.97-1.78-.09-.77.15-1.7.73-2.78l6.53-12.1h4l-7.34,13.61c-.97,1.84-.85,2.75.38,2.75.83,0,1.88-.58,3.16-1.76,1.28-1.17,3.19-3.1,5.75-5.8,1.19-1.26,2.38-2.52,3.56-3.78l1.78-1.78.32.38-1.67,1.73-3.02,3.29c-1.91,2.05-3.42,3.64-4.54,4.75-1.12,1.12-2.24,2.04-3.38,2.78-1.13.74-2.19,1.11-3.16,1.11-.86,0-1.58-.21-2.13-.62ZM288.48,16.84c-.4-.49-.54-1.07-.43-1.75.11-.65.45-1.22,1.03-1.7.58-.49,1.21-.73,1.89-.73.65,0,1.18.24,1.59.73.41.49.55,1.05.4,1.7-.14.68-.5,1.27-1.05,1.75-.56.49-1.18.73-1.86.73-.65,0-1.17-.24-1.57-.73Z"/>
      <path class="cls-1" d="M292.32,38.57c-.68-.65-1.03-1.51-1.03-2.59,0-2.05.63-4.19,1.89-6.4,1.26-2.21,2.92-4.05,4.97-5.51,2.05-1.46,4.16-2.19,6.32-2.19,1.26,0,2.22.24,2.89.73.67.49,1.03,1.13,1.08,1.92.05.79-.19,1.62-.73,2.48h-.38c.47-.83.68-1.57.65-2.24-.04-.67-.29-1.19-.76-1.57-.47-.38-1.1-.57-1.89-.57-1.4,0-2.72.52-3.94,1.57-1.22,1.04-2.3,2.45-3.24,4.21l-2.43,4.59c-.76,1.51-1.11,2.83-1.05,3.97.05,1.13.66,1.7,1.81,1.7.97,0,2.16-.63,3.56-1.89,1.4-1.26,2.77-2.8,4.1-4.62,1.33-1.82,2.38-3.52,3.13-5.1l.32.27c-.32.58-.65,1.17-.97,1.78-1.08,1.84-2.22,3.53-3.43,5.08-1.21,1.55-2.5,2.83-3.89,3.83-1.39,1.01-2.76,1.51-4.13,1.51-1.22,0-2.18-.32-2.86-.97ZM303.57,38.92c-.56-.41-.88-1.01-.97-1.78-.09-.77.15-1.7.73-2.78L321.26.94h4l-18.74,34.94c-.97,1.84-.85,2.75.38,2.75.83,0,1.88-.58,3.16-1.76,1.28-1.17,3.19-3.1,5.75-5.8,1.19-1.26,2.38-2.52,3.56-3.78l1.78-1.78.32.38-1.67,1.73-3.02,3.29c-1.91,2.05-3.42,3.64-4.54,4.75-1.12,1.12-2.24,2.04-3.38,2.78-1.13.74-2.19,1.11-3.16,1.11-.86,0-1.58-.21-2.13-.62Z"/>
      <path class="cls-1" d="M317.94,29.5c1.24-2.09,2.88-3.88,4.91-5.37,2.03-1.49,4.19-2.24,6.45-2.24,1.51,0,2.63.23,3.35.68.72.45,1.08,1.14,1.08,2.08,0,1.22-.61,2.37-1.84,3.43-1.22,1.06-2.82,1.92-4.78,2.56-1.96.65-4.01.97-6.13.97v-.49c1.98,0,3.71-.31,5.18-.92,1.48-.61,2.65-1.39,3.51-2.35.86-.95,1.39-1.9,1.57-2.83.18-.79.13-1.41-.16-1.86-.29-.45-.83-.67-1.62-.67-1.22,0-2.4.55-3.54,1.65-1.13,1.1-2.17,2.55-3.1,4.35l-2.27,4.27c-.83,1.62-1.14,3.04-.94,4.27.2,1.22,1.2,1.84,3,1.84,1.3,0,2.66-.41,4.1-1.24,1.44-.83,3.01-2.01,4.72-3.54,1.71-1.53,3.93-3.68,6.67-6.45l.32-.32,1.78-1.78.32.38-1.67,1.73-2.05,2c-2.74,2.63-4.83,4.57-6.29,5.83-1.46,1.26-2.93,2.27-4.4,3.02-1.48.76-2.97,1.13-4.48,1.13-1.94,0-3.36-.39-4.24-1.16-.88-.77-1.32-1.88-1.32-3.32,0-1.66.62-3.53,1.86-5.62Z"/>
      <path class="cls-1" d="M341.83,22.26h4.05l-8.91,16.74h-4.05l8.91-16.74ZM340.16,32.04c1.8-2.99,3.56-5.38,5.29-7.18,1.73-1.8,3.4-2.7,5.02-2.7.94,0,1.64.25,2.11.76.47.5.7,1.15.7,1.94,0,.86-.21,1.72-.62,2.56-.41.85-.94,1.53-1.59,2.05-.65.52-1.28.78-1.89.78-.58,0-1.03-.16-1.35-.49-.32-.32-.47-.81-.43-1.46.04-.72.34-1.33.92-1.84.58-.5,1.22-.76,1.94-.76.58,0,.97.22,1.19.65.22.43.22,1.01,0,1.73l-.27-.11c.36-.36.66-.82.89-1.38.23-.56.35-1.18.35-1.86,0-.61-.18-1.11-.54-1.49-.36-.38-.85-.57-1.46-.57-1.55,0-3.25,1.04-5.1,3.1-1.85,2.07-3.75,4.74-5.7,8.02l-.32-.32.86-1.46ZM348.37,30.28c-.4-.27-.65-.71-.76-1.32l.32-.27c.11.47.33.82.68,1.05.34.23.78.35,1.32.35,1.3,0,2.49-.22,3.59-.65,1.1-.43,2.13-1.13,3.1-2.11l1.84-1.84.32.38-1.73,1.78c-.94,1.01-2.01,1.76-3.21,2.27-1.21.5-2.53.76-3.97.76-.61,0-1.12-.14-1.51-.41Z"/>
      <path class="cls-1" d="M346.8,55.42c-.86-.79-1.3-1.73-1.3-2.81,0-1.37.35-2.46,1.05-3.27.7-.81,1.54-1.21,2.51-1.21.72,0,1.27.21,1.65.62.38.41.51,1,.4,1.75-.11.68-.43,1.26-.97,1.73-.54.47-1.15.7-1.84.7-.76,0-1.3-.32-1.62-.97-.32-.65-.34-1.35-.05-2.11l.54-.27c-.4.61-.67,1.14-.81,1.59-.14.45-.22.98-.22,1.59,0,.94.4,1.7,1.19,2.29.79.59,1.84.89,3.13.89,1.55,0,2.86-.48,3.94-1.43,1.08-.95,2.11-2.29,3.08-4.02l.32-.65,14.63-27.59h4l-14.04,26.41c-1.26,2.34-2.83,4.25-4.7,5.72-1.87,1.48-4.16,2.21-6.86,2.21-1.84,0-3.19-.4-4.05-1.19ZM353.66,37.82c-.61-1.15-.38-2.75.7-4.81l5.72-10.75h4l-6.7,12.64c-.72,1.33-.95,2.33-.7,3,.25.67.81,1,1.67,1,1.01,0,2.12-.42,3.35-1.27,1.22-.85,2.47-2.02,3.75-3.54,1.28-1.51,2.48-3.28,3.59-5.29l.38.32c-1.84,3.2-3.78,5.74-5.83,7.61-2.05,1.87-4.03,2.81-5.94,2.81-2.05,0-3.38-.58-4-1.73Z"/>
    </g>
  </g>
</svg>