<?xml version="1.0" encoding="UTF-8"?>
<svg id="_レイヤー_2" data-name="レイヤー 2" xmlns="http://www.w3.org/2000/svg" viewBox="0 0 362.73 64.46">
  <defs>
    <style>
      .cls-1, .cls-2 {
        fill: #bbc0c0;
        stroke: #bbc0c0;
        stroke-miterlimit: 10;
      }

      .cls-2 {
        stroke-width: .25px;
      }
    </style>
  </defs>
  <g id="txt">
    <g>
      <path class="cls-2" d="M21.59,39.1c-2.11-.68-4.62-1.66-7.53-2.92-2.27-1.01-4.13-1.75-5.59-2.24-1.46-.49-2.82-.73-4.08-.73s-2.15.23-2.78.7c-.63.47-.94,1.12-.94,1.94,0,1.01.66,1.83,1.97,2.46,1.31.63,3.21.95,5.7.95s4.44-.37,6.07-1.11c1.64-.74,3.06-1.83,4.27-3.27,1.21-1.44,2.47-3.4,3.81-5.89l7.29-13.66c2.48-4.64,4.92-8.06,7.32-10.26,2.39-2.2,5-3.73,7.8-4.59l.16.59c-1.12.43-2.11,1.03-2.97,1.78-.86.76-1.7,1.7-2.51,2.84-.81,1.13-1.74,2.62-2.78,4.45-.86,1.62-1.75,3.26-2.65,4.91l-7.02,13.01c-1.4,2.63-3.07,4.82-5,6.56-1.93,1.75-4.05,3.04-6.37,3.89-2.32.85-4.8,1.27-7.42,1.27s-4.74-.37-6.13-1.11c-1.39-.74-2.08-1.68-2.08-2.84,0-.68.17-1.33.51-1.94.34-.61.85-1.11,1.51-1.48.67-.38,1.43-.57,2.29-.57,1.26,0,2.57.26,3.94.78,1.37.52,3.2,1.36,5.51,2.51,1.91.94,3.55,1.7,4.91,2.29,1.37.59,2.85,1.1,4.46,1.51,1.6.41,3.19.62,4.78.62,3.85,0,7.34-1.18,10.48-3.54,3.13-2.36,5.6-5.38,7.4-9.07,1.8-3.69,2.7-7.39,2.7-11.1,0-3.1-.52-5.68-1.57-7.75-1.04-2.07-2.8-3.66-5.26-4.78-2.47-1.12-5.79-1.67-9.96-1.67-3.71,0-7.29.82-10.75,2.46-3.46,1.64-6.25,3.81-8.37,6.51-2.12,2.7-3.19,5.56-3.19,8.59,0,1.55.45,2.76,1.35,3.65.9.88,2.18,1.32,3.83,1.32,1.98,0,4.03-.6,6.16-1.81,2.12-1.21,4.04-2.59,5.75-4.16,1.71-1.57,3-2.92,3.86-4.08l.22.43c-.86,1.15-2.15,2.52-3.86,4.1-1.71,1.58-3.65,2.99-5.81,4.21-2.16,1.22-4.27,1.84-6.32,1.84-1.76,0-3.28-.28-4.54-.84-1.26-.56-2.22-1.34-2.89-2.35-.67-1.01-1-2.18-1-3.51,0-3.13,1.17-5.98,3.51-8.56,2.34-2.57,5.47-4.61,9.4-6.1,3.92-1.49,8.14-2.24,12.64-2.24s7.8.61,10.56,1.84c2.75,1.22,4.76,2.95,6.02,5.18,1.26,2.23,1.89,4.91,1.89,8.05,0,3.78-.97,7.52-2.92,11.23-1.94,3.71-4.62,6.75-8.02,9.13-3.4,2.38-7.17,3.56-11.31,3.56-2.2,0-4.35-.34-6.45-1.03Z"/>
      <path class="cls-2" d="M55.15,22.74h4.05l-8.91,16.74h-4.05l8.91-16.74ZM53.48,32.52c1.8-2.99,3.56-5.38,5.29-7.18,1.73-1.8,3.4-2.7,5.02-2.7.94,0,1.64.25,2.11.76.47.5.7,1.15.7,1.94,0,.86-.21,1.72-.62,2.56-.41.85-.94,1.53-1.59,2.05-.65.52-1.28.78-1.89.78-.58,0-1.03-.16-1.35-.49-.32-.32-.47-.81-.43-1.46.04-.72.34-1.33.92-1.84.58-.5,1.22-.76,1.94-.76.58,0,.97.22,1.19.65.22.43.22,1.01,0,1.73l-.27-.11c.36-.36.66-.82.89-1.38.23-.56.35-1.18.35-1.86,0-.61-.18-1.11-.54-1.49-.36-.38-.85-.57-1.46-.57-1.55,0-3.25,1.04-5.1,3.1-1.85,2.07-3.75,4.74-5.7,8.02l-.32-.32.86-1.46ZM61.68,30.76c-.4-.27-.65-.71-.76-1.32l.32-.27c.11.47.33.82.68,1.05.34.23.78.35,1.32.35,1.3,0,2.49-.22,3.59-.65,1.1-.43,2.13-1.13,3.11-2.11l1.84-1.84.32.38-1.73,1.78c-.94,1.01-2.01,1.76-3.21,2.27-1.21.5-2.53.76-3.97.76-.61,0-1.12-.14-1.51-.41Z"/>
      <path class="cls-2" d="M67.73,39.05c-.68-.65-1.03-1.51-1.03-2.59,0-2.05.63-4.19,1.89-6.4,1.26-2.21,2.92-4.05,4.97-5.51,2.05-1.46,4.16-2.19,6.32-2.19,1.26,0,2.22.24,2.89.73.67.49,1.03,1.13,1.08,1.92.05.79-.19,1.62-.73,2.48h-.38c.47-.83.68-1.57.65-2.24-.04-.67-.29-1.19-.76-1.57s-1.1-.57-1.89-.57c-1.4,0-2.72.52-3.94,1.57-1.22,1.04-2.3,2.45-3.24,4.21l-2.43,4.59c-.76,1.51-1.11,2.83-1.05,3.97.05,1.13.66,1.7,1.81,1.7.97,0,2.16-.63,3.56-1.89,1.4-1.26,2.77-2.8,4.1-4.62,1.33-1.82,2.38-3.52,3.13-5.1l.32.27c-.32.58-.65,1.17-.97,1.78-1.08,1.84-2.22,3.53-3.43,5.08-1.21,1.55-2.5,2.83-3.89,3.83-1.39,1.01-2.76,1.51-4.13,1.51-1.22,0-2.18-.32-2.86-.97ZM78.99,39.4c-.56-.41-.88-1.01-.97-1.78-.09-.77.15-1.7.73-2.78l6.53-12.1h4l-7.34,13.61c-.54,1.01-.75,1.73-.62,2.16.13.43.46.63,1,.59.83-.04,1.91-.65,3.24-1.84s3.26-3.13,5.78-5.83c1.15-1.22,2.3-2.45,3.46-3.67l1.78-1.78.32.38-1.67,1.73-3.02,3.29c-1.91,2.05-3.42,3.64-4.54,4.75-1.12,1.12-2.24,2.04-3.38,2.78-1.13.74-2.19,1.11-3.16,1.11-.86,0-1.58-.21-2.13-.62Z"/>
      <path class="cls-2" d="M91.74,38.29c-.59-1.15-.35-2.75.73-4.81l5.67-10.75h4.05l-6.7,12.58c-.72,1.3-.95,2.28-.7,2.94.25.67.81,1,1.67,1,1.01,0,2.06-.41,3.16-1.22,1.1-.81,2.21-1.95,3.35-3.43,1.13-1.48,2.29-3.26,3.48-5.35l.32.32c-1.91,3.35-3.76,5.92-5.56,7.72-1.8,1.8-3.64,2.7-5.51,2.7-2.05,0-3.38-.58-3.97-1.73ZM104.78,38.81c-.68-.81-.98-1.85-.89-3.13.09-1.28.48-2.56,1.16-3.86l4.81-9.07h4l-6.1,11.56c-.72,1.4-1.04,2.59-.97,3.56.07.97.65,1.46,1.73,1.46,1.01,0,2.25-.55,3.73-1.65,1.48-1.1,2.88-2.44,4.21-4.02,1.33-1.58,2.27-3.02,2.81-4.32-.25-1.15-.38-2.27-.38-3.35v-.27c0-.32.09-.73.27-1.21.18-.49.44-.89.78-1.22.34-.32.75-.4,1.21-.22-.61.04-1.1.38-1.46,1.03-.36.65-.58,1.35-.65,2.11-.14,1.01-.15,1.8-.03,2.38.13.58.4,1,.81,1.27.41.27,1.03.41,1.86.41.9,0,1.84-.22,2.81-.65.97-.43,1.85-1.04,2.65-1.84l1.78-1.78.32.38-1.67,1.73c-.83.86-1.77,1.54-2.84,2.02-1.06.49-2.12.73-3.16.73-1.26,0-2.21-.27-2.83-.81-.63-.54-.95-1.42-.95-2.65s.29-2.33.86-3.32c.58-.99,1.24-1.48,2-1.48.47,0,.79.14.97.43.18.29.27.65.27,1.08,0,1.51-.79,3.56-2.38,6.13-1.58,2.57-3.47,4.85-5.64,6.83-2.18,1.98-4.13,2.97-5.86,2.97-1.48,0-2.56-.41-3.24-1.22Z"/>
      <path class="cls-2" d="M122.46,39.08c-.81-.63-1.21-1.38-1.21-2.24,0-.79.26-1.47.78-2.02.52-.56,1.14-.84,1.86-.84.61,0,1.07.18,1.38.54.31.36.44.81.4,1.35-.04.54-.25,1.02-.65,1.43-.4.41-.88.62-1.46.62-.76.04-1.24-.17-1.46-.62-.22-.45-.27-.98-.16-1.59.04-.04.05-.09.05-.16h.49c-.43.36-.65.81-.65,1.35,0,.65.33,1.22,1,1.73.67.5,1.5.76,2.51.76,1.48,0,2.74-.31,3.78-.92,1.04-.61,1.86-1.55,2.46-2.81.59-1.26,1.02-2.84,1.27-4.75.11-.83.22-1.64.32-2.43.25-1.58.59-2.89,1.03-3.92.43-1.03,1.03-1.81,1.78-2.35.43-.32.91-.57,1.43-.73.52-.16,1.05-.24,1.59-.24.65,0,1.08.14,1.3.43.22.29.21.59-.03.89-.23.31-.6.46-1.11.46-.25,0-.74-.09-1.46-.27-.43-.14-.77-.21-1-.19-.23.02-.42.15-.57.41-.25.32-.36.81-.32,1.46.04.65.14,1.58.32,2.81.11.61.21,1.24.3,1.89.09.65.14,1.24.14,1.78,0,1.87-.48,3.5-1.43,4.89-.95,1.39-2.23,2.44-3.83,3.16-1.6.72-3.39,1.08-5.37,1.08-1.51,0-2.67-.32-3.48-.95ZM132.07,38.13c1.96-.97,3.74-2.15,5.35-3.54,1.6-1.39,3.54-3.21,5.81-5.48l1.35-1.35,1.78-1.78.32.38-1.67,1.73c-3.28,3.38-6.05,5.95-8.32,7.7-2.27,1.75-4.19,2.89-5.78,3.43-1.58.54-3.22.81-4.91.81l-.05-.43c2.12,0,4.17-.49,6.13-1.46ZM127.13,27.76l1.78-1.78c1.04-1.19,2.12-2.07,3.24-2.65,1.12-.58,2.43-.9,3.94-.97l-.22.49c-1.44.14-2.63.48-3.56,1-.94.52-1.96,1.36-3.08,2.51l-1.67,1.73-.43-.32Z"/>
      <path class="cls-2" d="M142.01,39.4c-.63-.41-1.01-1.02-1.13-1.81-.13-.79.1-1.71.67-2.75l13.07-24.73h4.05l-13.93,26.24c-.5.97-.66,1.67-.46,2.11.2.43.58.65,1.16.65,1.08,0,2.44-.72,4.08-2.16,1.64-1.44,4-3.78,7.1-7.02.68-.72,1.37-1.44,2.05-2.16l1.78-1.78.32.38-1.67,1.73-1.94,2.11c-2.23,2.34-4,4.14-5.29,5.4-1.3,1.26-2.6,2.31-3.92,3.16-1.31.85-2.55,1.27-3.7,1.27-.86,0-1.61-.21-2.24-.62ZM144.47,22.74h11.88l-.32.59h-11.88l.32-.59Z"/>
      <path class="cls-2" d="M162.07,22.74h4.05l-8.91,16.74h-4.05l8.91-16.74ZM160.4,32.52c1.8-2.99,3.56-5.38,5.29-7.18,1.73-1.8,3.4-2.7,5.02-2.7.94,0,1.64.25,2.11.76.47.5.7,1.15.7,1.94,0,.86-.21,1.72-.62,2.56-.41.85-.94,1.53-1.59,2.05-.65.52-1.28.78-1.89.78-.58,0-1.03-.16-1.35-.49-.32-.32-.47-.81-.43-1.46.04-.72.34-1.33.92-1.84.58-.5,1.22-.76,1.94-.76.58,0,.97.22,1.19.65.22.43.22,1.01,0,1.73l-.27-.11c.36-.36.66-.82.89-1.38.23-.56.35-1.18.35-1.86,0-.61-.18-1.11-.54-1.49-.36-.38-.85-.57-1.46-.57-1.55,0-3.25,1.04-5.1,3.1-1.85,2.07-3.75,4.74-5.7,8.02l-.32-.32.86-1.46ZM168.6,30.76c-.4-.27-.65-.71-.76-1.32l.32-.27c.11.47.33.82.68,1.05.34.23.78.35,1.32.35,1.3,0,2.49-.22,3.59-.65,1.1-.43,2.13-1.13,3.1-2.11l1.84-1.84.32.38-1.73,1.78c-.94,1.01-2.01,1.76-3.21,2.27-1.21.5-2.53.76-3.97.76-.61,0-1.12-.14-1.51-.41Z"/>
      <path class="cls-2" d="M174.14,39.4c-.56-.41-.88-1.01-.97-1.78-.09-.77.15-1.7.73-2.78l6.53-12.1h4l-7.34,13.61c-.97,1.84-.85,2.75.38,2.75.83,0,1.88-.58,3.16-1.76,1.28-1.17,3.19-3.1,5.75-5.8,1.19-1.26,2.38-2.52,3.56-3.78l1.78-1.78.32.38-1.67,1.73-3.02,3.29c-1.91,2.05-3.42,3.64-4.54,4.75-1.12,1.12-2.24,2.04-3.38,2.78-1.13.74-2.19,1.11-3.16,1.11-.86,0-1.58-.21-2.13-.62ZM183.83,17.32c-.4-.49-.54-1.07-.43-1.75.11-.65.45-1.22,1.03-1.7.58-.49,1.21-.73,1.89-.73.65,0,1.18.24,1.59.73.41.49.55,1.05.4,1.7-.14.68-.5,1.27-1.05,1.75-.56.49-1.18.73-1.86.73-.65,0-1.17-.24-1.57-.73Z"/>
      <path class="cls-2" d="M193.33,22.74h4.05l-8.91,16.74h-4.05l8.91-16.74ZM199.49,39.4c-.58-.41-.9-1.01-.97-1.78-.07-.77.18-1.7.76-2.78l4.16-7.67c.65-1.22.85-2.15.59-2.78-.25-.63-.77-.95-1.57-.95-.97,0-2.13.5-3.48,1.51-1.35,1.01-2.72,2.34-4.1,4-1.39,1.66-2.64,3.44-3.75,5.35l-.32-.32c1.91-3.24,3.99-5.96,6.24-8.15,2.25-2.2,4.44-3.29,6.56-3.29,1.8,0,2.98.59,3.54,1.75.56,1.17.31,2.75-.73,4.73l-3.89,7.34c-1.01,1.84-.9,2.75.32,2.75.83,0,1.88-.58,3.16-1.76,1.28-1.17,3.19-3.1,5.75-5.8,1.19-1.26,2.38-2.52,3.56-3.78l1.78-1.78.32.38-1.67,1.73-3.02,3.29c-1.91,2.05-3.42,3.64-4.54,4.75-1.12,1.12-2.24,2.04-3.38,2.78-1.13.74-2.19,1.11-3.16,1.11-.86,0-1.58-.21-2.16-.62Z"/>
      <path class="cls-2" d="M204.86,55.9c-.85-.79-1.27-1.73-1.27-2.81,0-1.33.38-2.37,1.13-3.1.76-.74,1.58-1.11,2.48-1.11.65,0,1.14.18,1.49.54.34.36.46.88.35,1.57-.07.61-.35,1.12-.84,1.54-.49.41-1.03.62-1.65.62-.68,0-1.19-.28-1.51-.84-.32-.56-.43-1.22-.32-1.97l.54-.27c-.4.61-.67,1.14-.81,1.59-.14.45-.22.98-.22,1.59,0,.94.4,1.7,1.19,2.29.79.59,1.84.89,3.13.89,1.55,0,2.86-.48,3.94-1.43,1.08-.95,2.11-2.29,3.08-4.02l.32-.65,14.63-27.59h4l-14.04,26.41c-1.26,2.34-2.83,4.25-4.7,5.72-1.87,1.48-4.16,2.21-6.86,2.21-1.87,0-3.23-.4-4.08-1.19ZM213.04,39.05c-.68-.65-1.03-1.51-1.03-2.59,0-2.05.63-4.19,1.89-6.4,1.26-2.21,2.92-4.05,4.97-5.51,2.05-1.46,4.16-2.19,6.32-2.19,1.26,0,2.22.24,2.89.73.67.49,1.03,1.13,1.08,1.92.05.79-.19,1.62-.73,2.48h-.32c.47-.83.68-1.57.65-2.24-.04-.67-.3-1.19-.78-1.57s-1.13-.57-1.92-.57c-1.4,0-2.72.52-3.94,1.57-1.22,1.04-2.3,2.45-3.24,4.21l-2.43,4.59c-.76,1.51-1.11,2.83-1.05,3.97.05,1.13.66,1.7,1.81,1.7.97,0,2.17-.63,3.59-1.89,1.42-1.26,2.8-2.81,4.13-4.64,1.33-1.84,2.38-3.53,3.13-5.08l.27.27c-.32.58-.65,1.17-.97,1.78-1.08,1.84-2.22,3.53-3.43,5.08-1.21,1.55-2.5,2.83-3.89,3.83-1.39,1.01-2.76,1.51-4.13,1.51-1.22,0-2.18-.32-2.86-.97Z"/>
      <path class="cls-1" d="M267.63,58.97c-1.51,3.17-4.84,4.99-8.62,4.99-6.9,0-9.83-5.38-9.83-11.14,0-1.34.15-2.69.45-4.32-6.05-1.78-8.77-6.91-8.77-13.83,0-11.86,12.8-24.63,23.99-24.63,7.76,0,10.99,4.99,10.68,10.94-.1,1.82-.6,3.84-1.31,5.62l3.23-1.73c.5-2.98.91-6.14,1.61-9.22,2.12-8.98,9.48-15.17,15.07-15.17,2.42,0,5.14,1.15,5.14,4.37,0,7.78-9.37,13.06-17.09,17.19-.3,1.87-.66,3.65-1.06,5.42-2.47,10.66-13.96,21.7-26.91,21.7-1.46,0-3.02-.24-4.49-.62-.25,1.06-.45,2.3-.45,4.27,0,5.76,2.82,11.04,9.73,11.04,3.73,0,7.06-1.78,8.57-4.94l.05.05ZM274.13,26.66c.81-2.06,1.31-4.42,1.31-6.53,0-5.52-3.23-9.98-10.58-9.98-11.09,0-23.89,12.82-23.89,24.53,0,7.68,3.28,12.15,8.72,13.68.76-2.78,2.32-5.42,4.23-7.78-3.53-.96-5.9-4.22-5.9-8.4,0-5.71,5.49-12.72,11.74-12.72,1.41,0,3.18.34,4.49,1.49h-.1c-1.31-1.06-2.92-1.39-4.38-1.39-6.3,0-11.64,7.15-11.64,12.62,0,3.84,2.17,7.34,5.85,8.35,4.74-5.71,12.45-9.89,20.16-13.87ZM249.79,48.41c1.06.29,2.37.58,3.88.58,5.19,0,19.1-3.31,23.23-21.07.2-.86.4-1.87.55-2.88l-3.28,1.68c-3.07,8.16-10.48,14.21-17.84,14.21-.81,0-1.61-.14-2.32-.29-1.97,2.26-3.48,4.9-4.23,7.78ZM254.07,40.54c.66.19,1.51.29,2.27.29,7.21,0,14.62-5.9,17.69-14.02-7.81,3.98-15.27,8.16-19.96,13.73ZM282.19,21.96c6.65-3.65,16.98-8.98,16.98-17.09,0-2.4-1.92-4.13-4.33-4.13-5.14,0-9.22,3.79-10.79,10.22-.71,2.98-1.31,7.54-1.86,10.99Z"/>
      <path class="cls-2" d="M306.89,1.41h4l-20.3,38.07h-4L306.89,1.41ZM298.9,25.98c2.23-2.45,4.48-3.67,6.75-3.67.97,0,1.73.22,2.27.65.54.43.81,1.04.81,1.84,0,1.15-.63,2.21-1.89,3.16-1.26.95-2.88,1.71-4.86,2.27-1.98.56-4.01.87-6.1.95v-.43c2.2,0,4.02-.35,5.48-1.05s2.54-1.52,3.24-2.46c.7-.94,1.05-1.76,1.05-2.48,0-.47-.1-.82-.3-1.05-.2-.23-.51-.35-.94-.35-1.08,0-2.34.6-3.78,1.81-1.44,1.21-2.83,2.69-4.16,4.46-1.33,1.76-2.43,3.44-3.29,5.02l-.32-.32c1.8-3.1,3.82-5.87,6.05-8.32ZM299.41,39.21c-.56-.54-.51-1.42.13-2.65l1.24-2.32c.54-1.04.55-1.81.03-2.29-.52-.49-1.38-.73-2.56-.73h-3.24v-.54h3.67c1.58-.04,2.89.09,3.92.38,1.03.29,1.7.75,2.02,1.38.32.63.23,1.45-.27,2.46l-1.13,2.38c-.11.29-.23.58-.38.86-.11.36-.11.62,0,.78.11.16.31.24.59.24.54,0,1.29-.46,2.24-1.38.95-.92,2.48-2.53,4.56-4.83,2.7-2.88,4.32-4.61,4.86-5.18l1.78-1.78.32.38-1.67,1.73c-.32.32-1.6,1.71-3.83,4.16-1.62,1.84-2.93,3.27-3.94,4.29-1.01,1.03-1.98,1.86-2.92,2.51-.94.65-1.78.97-2.54.97-1.37,0-2.33-.27-2.89-.81Z"/>
      <path class="cls-2" d="M312.32,39.4c-.56-.41-.88-1.01-.97-1.78-.09-.77.15-1.7.73-2.78l6.53-12.1h4l-7.34,13.61c-.97,1.84-.85,2.75.38,2.75.83,0,1.88-.58,3.16-1.76,1.28-1.17,3.19-3.1,5.75-5.8,1.19-1.26,2.38-2.52,3.56-3.78l1.78-1.78.32.38-1.67,1.73-3.02,3.29c-1.91,2.05-3.42,3.64-4.54,4.75-1.12,1.12-2.24,2.04-3.38,2.78-1.13.74-2.19,1.11-3.16,1.11-.86,0-1.58-.21-2.13-.62ZM322.01,17.32c-.4-.49-.54-1.07-.43-1.75.11-.65.45-1.22,1.03-1.7.58-.49,1.21-.73,1.89-.73.65,0,1.18.24,1.59.73.41.49.55,1.05.4,1.7-.14.68-.5,1.27-1.05,1.75-.56.49-1.18.73-1.86.73-.65,0-1.17-.24-1.57-.73Z"/>
      <path class="cls-2" d="M331.51,22.74h4.05l-8.91,16.74h-4.05l8.91-16.74ZM329.84,32.52c1.8-2.99,3.56-5.38,5.29-7.18,1.73-1.8,3.4-2.7,5.02-2.7.94,0,1.64.25,2.11.76.47.5.7,1.15.7,1.94,0,.86-.21,1.72-.62,2.56-.41.85-.94,1.53-1.59,2.05-.65.52-1.28.78-1.89.78-.58,0-1.03-.16-1.35-.49-.32-.32-.47-.81-.43-1.46.04-.72.34-1.33.92-1.84.58-.5,1.22-.76,1.94-.76.58,0,.97.22,1.19.65.22.43.22,1.01,0,1.73l-.27-.11c.36-.36.66-.82.89-1.38.23-.56.35-1.18.35-1.86,0-.61-.18-1.11-.54-1.49-.36-.38-.85-.57-1.46-.57-1.55,0-3.25,1.04-5.1,3.1-1.85,2.07-3.75,4.74-5.7,8.02l-.32-.32.86-1.46ZM338.05,30.76c-.4-.27-.65-.71-.76-1.32l.32-.27c.11.47.33.82.68,1.05.34.23.78.35,1.32.35,1.3,0,2.49-.22,3.59-.65,1.1-.43,2.13-1.13,3.1-2.11l1.84-1.84.32.38-1.73,1.78c-.94,1.01-2.01,1.76-3.21,2.27-1.21.5-2.53.76-3.97.76-.61,0-1.12-.14-1.51-.41Z"/>
      <path class="cls-2" d="M343.8,39.4c-.63-.41-1.01-1.02-1.13-1.81-.13-.79.1-1.71.67-2.75l13.07-24.73h4.05l-13.93,26.24c-.5.97-.66,1.67-.46,2.11.2.43.58.65,1.16.65,1.08,0,2.44-.72,4.08-2.16,1.64-1.44,4-3.78,7.1-7.02.68-.72,1.37-1.44,2.05-2.16l1.78-1.78.32.38-1.67,1.73-1.94,2.11c-2.23,2.34-4,4.14-5.29,5.4-1.3,1.26-2.6,2.31-3.92,3.16-1.31.85-2.55,1.27-3.7,1.27-.86,0-1.61-.21-2.24-.62ZM346.26,22.74h11.88l-.32.59h-11.88l.32-.59Z"/>
    </g>
  </g>
</svg>